<mxfile host="app.diagrams.net" modified="2023-01-03T13:42:30.640Z" agent="5.0 (Windows NT 10.0; Win64; x64) AppleWebKit/537.36 (KHTML, like Gecko) Chrome/108.0.0.0 Safari/537.36" etag="fsWFUuYT064aiIGkfoeJ" version="14.9.0" type="github">
  <diagram id="pIhVvaM4Op8eLOihLB3h" name="第 1 页">
    <mxGraphModel dx="1247" dy="670" grid="1" gridSize="10" guides="1" tooltips="1" connect="1" arrows="1" fold="1" page="1" pageScale="1" pageWidth="2339" pageHeight="3300" math="0" shadow="0">
      <root>
        <mxCell id="0" />
        <mxCell id="1" parent="0" />
        <mxCell id="miaj4zXdVuBx5uiMbY_F-8" value="" style="rounded=1;whiteSpace=wrap;html=1;movable=0;resizable=0;rotatable=0;deletable=0;editable=0;connectable=0;" parent="1" vertex="1">
          <mxGeometry x="480" y="1360" width="420" height="415" as="geometry" />
        </mxCell>
        <mxCell id="FWrRMuIiG-VBUuwi6HVb-102" value="" style="ellipse;whiteSpace=wrap;html=1;aspect=fixed;dashed=1;strokeWidth=3;" parent="1" vertex="1">
          <mxGeometry x="37.5" y="765" width="300" height="300" as="geometry" />
        </mxCell>
        <mxCell id="FWrRMuIiG-VBUuwi6HVb-1" value="" style="shape=table;startSize=0;container=1;collapsible=0;childLayout=tableLayout;" parent="1" vertex="1">
          <mxGeometry x="90" y="40" width="360" height="360" as="geometry" />
        </mxCell>
        <mxCell id="FWrRMuIiG-VBUuwi6HVb-2" value="" style="shape=tableRow;horizontal=0;startSize=0;swimlaneHead=0;swimlaneBody=0;top=0;left=0;bottom=0;right=0;collapsible=0;dropTarget=0;fillColor=none;points=[[0,0.5],[1,0.5]];portConstraint=eastwest;" parent="FWrRMuIiG-VBUuwi6HVb-1" vertex="1">
          <mxGeometry width="360" height="60" as="geometry" />
        </mxCell>
        <mxCell id="FWrRMuIiG-VBUuwi6HVb-3" value="1" style="shape=partialRectangle;html=1;whiteSpace=wrap;connectable=0;overflow=hidden;fillColor=none;top=0;left=0;bottom=0;right=0;pointerEvents=1;" parent="FWrRMuIiG-VBUuwi6HVb-2" vertex="1">
          <mxGeometry width="60" height="60" as="geometry">
            <mxRectangle width="60" height="60" as="alternateBounds" />
          </mxGeometry>
        </mxCell>
        <mxCell id="FWrRMuIiG-VBUuwi6HVb-4" value="2" style="shape=partialRectangle;html=1;whiteSpace=wrap;connectable=0;overflow=hidden;fillColor=none;top=0;left=0;bottom=0;right=0;pointerEvents=1;" parent="FWrRMuIiG-VBUuwi6HVb-2" vertex="1">
          <mxGeometry x="60" width="60" height="60" as="geometry">
            <mxRectangle width="60" height="60" as="alternateBounds" />
          </mxGeometry>
        </mxCell>
        <mxCell id="FWrRMuIiG-VBUuwi6HVb-5" value="3" style="shape=partialRectangle;html=1;whiteSpace=wrap;connectable=0;overflow=hidden;fillColor=none;top=0;left=0;bottom=0;right=0;pointerEvents=1;" parent="FWrRMuIiG-VBUuwi6HVb-2" vertex="1">
          <mxGeometry x="120" width="60" height="60" as="geometry">
            <mxRectangle width="60" height="60" as="alternateBounds" />
          </mxGeometry>
        </mxCell>
        <mxCell id="FWrRMuIiG-VBUuwi6HVb-6" value="4" style="shape=partialRectangle;html=1;whiteSpace=wrap;connectable=0;overflow=hidden;fillColor=none;top=0;left=0;bottom=0;right=0;pointerEvents=1;" parent="FWrRMuIiG-VBUuwi6HVb-2" vertex="1">
          <mxGeometry x="180" width="60" height="60" as="geometry">
            <mxRectangle width="60" height="60" as="alternateBounds" />
          </mxGeometry>
        </mxCell>
        <mxCell id="FWrRMuIiG-VBUuwi6HVb-7" value="5" style="shape=partialRectangle;html=1;whiteSpace=wrap;connectable=0;overflow=hidden;fillColor=none;top=0;left=0;bottom=0;right=0;pointerEvents=1;" parent="FWrRMuIiG-VBUuwi6HVb-2" vertex="1">
          <mxGeometry x="240" width="60" height="60" as="geometry">
            <mxRectangle width="60" height="60" as="alternateBounds" />
          </mxGeometry>
        </mxCell>
        <mxCell id="FWrRMuIiG-VBUuwi6HVb-8" value="6" style="shape=partialRectangle;html=1;whiteSpace=wrap;connectable=0;overflow=hidden;fillColor=none;top=0;left=0;bottom=0;right=0;pointerEvents=1;" parent="FWrRMuIiG-VBUuwi6HVb-2" vertex="1">
          <mxGeometry x="300" width="60" height="60" as="geometry">
            <mxRectangle width="60" height="60" as="alternateBounds" />
          </mxGeometry>
        </mxCell>
        <mxCell id="FWrRMuIiG-VBUuwi6HVb-9" value="" style="shape=tableRow;horizontal=0;startSize=0;swimlaneHead=0;swimlaneBody=0;top=0;left=0;bottom=0;right=0;collapsible=0;dropTarget=0;fillColor=none;points=[[0,0.5],[1,0.5]];portConstraint=eastwest;" parent="FWrRMuIiG-VBUuwi6HVb-1" vertex="1">
          <mxGeometry y="60" width="360" height="60" as="geometry" />
        </mxCell>
        <mxCell id="FWrRMuIiG-VBUuwi6HVb-10" value="7" style="shape=partialRectangle;html=1;whiteSpace=wrap;connectable=0;overflow=hidden;fillColor=none;top=0;left=0;bottom=0;right=0;pointerEvents=1;" parent="FWrRMuIiG-VBUuwi6HVb-9" vertex="1">
          <mxGeometry width="60" height="60" as="geometry">
            <mxRectangle width="60" height="60" as="alternateBounds" />
          </mxGeometry>
        </mxCell>
        <mxCell id="FWrRMuIiG-VBUuwi6HVb-11" value="8" style="shape=partialRectangle;html=1;whiteSpace=wrap;connectable=0;overflow=hidden;fillColor=#ffe6cc;top=0;left=0;bottom=0;right=0;pointerEvents=1;strokeColor=#d79b00;" parent="FWrRMuIiG-VBUuwi6HVb-9" vertex="1">
          <mxGeometry x="60" width="60" height="60" as="geometry">
            <mxRectangle width="60" height="60" as="alternateBounds" />
          </mxGeometry>
        </mxCell>
        <mxCell id="FWrRMuIiG-VBUuwi6HVb-12" value="9" style="shape=partialRectangle;html=1;whiteSpace=wrap;connectable=0;overflow=hidden;fillColor=#ffe6cc;top=0;left=0;bottom=0;right=0;pointerEvents=1;strokeColor=#d79b00;" parent="FWrRMuIiG-VBUuwi6HVb-9" vertex="1">
          <mxGeometry x="120" width="60" height="60" as="geometry">
            <mxRectangle width="60" height="60" as="alternateBounds" />
          </mxGeometry>
        </mxCell>
        <mxCell id="FWrRMuIiG-VBUuwi6HVb-13" value="10" style="shape=partialRectangle;html=1;whiteSpace=wrap;connectable=0;overflow=hidden;fillColor=#ffe6cc;top=0;left=0;bottom=0;right=0;pointerEvents=1;strokeColor=#d79b00;" parent="FWrRMuIiG-VBUuwi6HVb-9" vertex="1">
          <mxGeometry x="180" width="60" height="60" as="geometry">
            <mxRectangle width="60" height="60" as="alternateBounds" />
          </mxGeometry>
        </mxCell>
        <mxCell id="FWrRMuIiG-VBUuwi6HVb-14" value="11" style="shape=partialRectangle;html=1;whiteSpace=wrap;connectable=0;overflow=hidden;fillColor=none;top=0;left=0;bottom=0;right=0;pointerEvents=1;" parent="FWrRMuIiG-VBUuwi6HVb-9" vertex="1">
          <mxGeometry x="240" width="60" height="60" as="geometry">
            <mxRectangle width="60" height="60" as="alternateBounds" />
          </mxGeometry>
        </mxCell>
        <mxCell id="FWrRMuIiG-VBUuwi6HVb-15" value="12" style="shape=partialRectangle;html=1;whiteSpace=wrap;connectable=0;overflow=hidden;fillColor=none;top=0;left=0;bottom=0;right=0;pointerEvents=1;" parent="FWrRMuIiG-VBUuwi6HVb-9" vertex="1">
          <mxGeometry x="300" width="60" height="60" as="geometry">
            <mxRectangle width="60" height="60" as="alternateBounds" />
          </mxGeometry>
        </mxCell>
        <mxCell id="FWrRMuIiG-VBUuwi6HVb-16" value="" style="shape=tableRow;horizontal=0;startSize=0;swimlaneHead=0;swimlaneBody=0;top=0;left=0;bottom=0;right=0;collapsible=0;dropTarget=0;fillColor=none;points=[[0,0.5],[1,0.5]];portConstraint=eastwest;" parent="FWrRMuIiG-VBUuwi6HVb-1" vertex="1">
          <mxGeometry y="120" width="360" height="60" as="geometry" />
        </mxCell>
        <mxCell id="FWrRMuIiG-VBUuwi6HVb-17" value="13" style="shape=partialRectangle;html=1;whiteSpace=wrap;connectable=0;overflow=hidden;fillColor=none;top=0;left=0;bottom=0;right=0;pointerEvents=1;" parent="FWrRMuIiG-VBUuwi6HVb-16" vertex="1">
          <mxGeometry width="60" height="60" as="geometry">
            <mxRectangle width="60" height="60" as="alternateBounds" />
          </mxGeometry>
        </mxCell>
        <mxCell id="FWrRMuIiG-VBUuwi6HVb-18" value="14" style="shape=partialRectangle;html=1;whiteSpace=wrap;connectable=0;overflow=hidden;fillColor=#ffe6cc;top=0;left=0;bottom=0;right=0;pointerEvents=1;strokeColor=#d79b00;" parent="FWrRMuIiG-VBUuwi6HVb-16" vertex="1">
          <mxGeometry x="60" width="60" height="60" as="geometry">
            <mxRectangle width="60" height="60" as="alternateBounds" />
          </mxGeometry>
        </mxCell>
        <mxCell id="FWrRMuIiG-VBUuwi6HVb-19" value="15" style="shape=partialRectangle;html=1;whiteSpace=wrap;connectable=0;overflow=hidden;fillColor=#ffe6cc;top=0;left=0;bottom=0;right=0;pointerEvents=1;strokeColor=#d79b00;strokeWidth=3;" parent="FWrRMuIiG-VBUuwi6HVb-16" vertex="1">
          <mxGeometry x="120" width="60" height="60" as="geometry">
            <mxRectangle width="60" height="60" as="alternateBounds" />
          </mxGeometry>
        </mxCell>
        <mxCell id="FWrRMuIiG-VBUuwi6HVb-20" value="16" style="shape=partialRectangle;html=1;whiteSpace=wrap;connectable=0;overflow=hidden;fillColor=#ffe6cc;top=0;left=0;bottom=0;right=0;pointerEvents=1;strokeColor=#d79b00;" parent="FWrRMuIiG-VBUuwi6HVb-16" vertex="1">
          <mxGeometry x="180" width="60" height="60" as="geometry">
            <mxRectangle width="60" height="60" as="alternateBounds" />
          </mxGeometry>
        </mxCell>
        <mxCell id="FWrRMuIiG-VBUuwi6HVb-21" value="17" style="shape=partialRectangle;html=1;whiteSpace=wrap;connectable=0;overflow=hidden;fillColor=none;top=0;left=0;bottom=0;right=0;pointerEvents=1;" parent="FWrRMuIiG-VBUuwi6HVb-16" vertex="1">
          <mxGeometry x="240" width="60" height="60" as="geometry">
            <mxRectangle width="60" height="60" as="alternateBounds" />
          </mxGeometry>
        </mxCell>
        <mxCell id="FWrRMuIiG-VBUuwi6HVb-22" value="18" style="shape=partialRectangle;html=1;whiteSpace=wrap;connectable=0;overflow=hidden;fillColor=none;top=0;left=0;bottom=0;right=0;pointerEvents=1;" parent="FWrRMuIiG-VBUuwi6HVb-16" vertex="1">
          <mxGeometry x="300" width="60" height="60" as="geometry">
            <mxRectangle width="60" height="60" as="alternateBounds" />
          </mxGeometry>
        </mxCell>
        <mxCell id="FWrRMuIiG-VBUuwi6HVb-23" value="" style="shape=tableRow;horizontal=0;startSize=0;swimlaneHead=0;swimlaneBody=0;top=0;left=0;bottom=0;right=0;collapsible=0;dropTarget=0;fillColor=none;points=[[0,0.5],[1,0.5]];portConstraint=eastwest;" parent="FWrRMuIiG-VBUuwi6HVb-1" vertex="1">
          <mxGeometry y="180" width="360" height="60" as="geometry" />
        </mxCell>
        <mxCell id="FWrRMuIiG-VBUuwi6HVb-24" value="19" style="shape=partialRectangle;html=1;whiteSpace=wrap;connectable=0;overflow=hidden;fillColor=none;top=0;left=0;bottom=0;right=0;pointerEvents=1;" parent="FWrRMuIiG-VBUuwi6HVb-23" vertex="1">
          <mxGeometry width="60" height="60" as="geometry">
            <mxRectangle width="60" height="60" as="alternateBounds" />
          </mxGeometry>
        </mxCell>
        <mxCell id="FWrRMuIiG-VBUuwi6HVb-25" value="20" style="shape=partialRectangle;html=1;whiteSpace=wrap;connectable=0;overflow=hidden;fillColor=#ffe6cc;top=0;left=0;bottom=0;right=0;pointerEvents=1;strokeColor=#d79b00;" parent="FWrRMuIiG-VBUuwi6HVb-23" vertex="1">
          <mxGeometry x="60" width="60" height="60" as="geometry">
            <mxRectangle width="60" height="60" as="alternateBounds" />
          </mxGeometry>
        </mxCell>
        <mxCell id="FWrRMuIiG-VBUuwi6HVb-26" value="21" style="shape=partialRectangle;html=1;whiteSpace=wrap;connectable=0;overflow=hidden;fillColor=#ffe6cc;top=0;left=0;bottom=0;right=0;pointerEvents=1;strokeColor=#d79b00;" parent="FWrRMuIiG-VBUuwi6HVb-23" vertex="1">
          <mxGeometry x="120" width="60" height="60" as="geometry">
            <mxRectangle width="60" height="60" as="alternateBounds" />
          </mxGeometry>
        </mxCell>
        <mxCell id="FWrRMuIiG-VBUuwi6HVb-27" value="22" style="shape=partialRectangle;html=1;whiteSpace=wrap;connectable=0;overflow=hidden;fillColor=#ffe6cc;top=0;left=0;bottom=0;right=0;pointerEvents=1;strokeColor=#d79b00;" parent="FWrRMuIiG-VBUuwi6HVb-23" vertex="1">
          <mxGeometry x="180" width="60" height="60" as="geometry">
            <mxRectangle width="60" height="60" as="alternateBounds" />
          </mxGeometry>
        </mxCell>
        <mxCell id="FWrRMuIiG-VBUuwi6HVb-28" value="23" style="shape=partialRectangle;html=1;whiteSpace=wrap;connectable=0;overflow=hidden;fillColor=none;top=0;left=0;bottom=0;right=0;pointerEvents=1;" parent="FWrRMuIiG-VBUuwi6HVb-23" vertex="1">
          <mxGeometry x="240" width="60" height="60" as="geometry">
            <mxRectangle width="60" height="60" as="alternateBounds" />
          </mxGeometry>
        </mxCell>
        <mxCell id="FWrRMuIiG-VBUuwi6HVb-29" value="24" style="shape=partialRectangle;html=1;whiteSpace=wrap;connectable=0;overflow=hidden;fillColor=none;top=0;left=0;bottom=0;right=0;pointerEvents=1;" parent="FWrRMuIiG-VBUuwi6HVb-23" vertex="1">
          <mxGeometry x="300" width="60" height="60" as="geometry">
            <mxRectangle width="60" height="60" as="alternateBounds" />
          </mxGeometry>
        </mxCell>
        <mxCell id="FWrRMuIiG-VBUuwi6HVb-30" value="" style="shape=tableRow;horizontal=0;startSize=0;swimlaneHead=0;swimlaneBody=0;top=0;left=0;bottom=0;right=0;collapsible=0;dropTarget=0;fillColor=none;points=[[0,0.5],[1,0.5]];portConstraint=eastwest;" parent="FWrRMuIiG-VBUuwi6HVb-1" vertex="1">
          <mxGeometry y="240" width="360" height="60" as="geometry" />
        </mxCell>
        <mxCell id="FWrRMuIiG-VBUuwi6HVb-31" value="25" style="shape=partialRectangle;html=1;whiteSpace=wrap;connectable=0;overflow=hidden;fillColor=none;top=0;left=0;bottom=0;right=0;pointerEvents=1;" parent="FWrRMuIiG-VBUuwi6HVb-30" vertex="1">
          <mxGeometry width="60" height="60" as="geometry">
            <mxRectangle width="60" height="60" as="alternateBounds" />
          </mxGeometry>
        </mxCell>
        <mxCell id="FWrRMuIiG-VBUuwi6HVb-32" value="26" style="shape=partialRectangle;html=1;whiteSpace=wrap;connectable=0;overflow=hidden;fillColor=none;top=0;left=0;bottom=0;right=0;pointerEvents=1;" parent="FWrRMuIiG-VBUuwi6HVb-30" vertex="1">
          <mxGeometry x="60" width="60" height="60" as="geometry">
            <mxRectangle width="60" height="60" as="alternateBounds" />
          </mxGeometry>
        </mxCell>
        <mxCell id="FWrRMuIiG-VBUuwi6HVb-33" value="27" style="shape=partialRectangle;html=1;whiteSpace=wrap;connectable=0;overflow=hidden;fillColor=none;top=0;left=0;bottom=0;right=0;pointerEvents=1;" parent="FWrRMuIiG-VBUuwi6HVb-30" vertex="1">
          <mxGeometry x="120" width="60" height="60" as="geometry">
            <mxRectangle width="60" height="60" as="alternateBounds" />
          </mxGeometry>
        </mxCell>
        <mxCell id="FWrRMuIiG-VBUuwi6HVb-34" value="28" style="shape=partialRectangle;html=1;whiteSpace=wrap;connectable=0;overflow=hidden;fillColor=none;top=0;left=0;bottom=0;right=0;pointerEvents=1;" parent="FWrRMuIiG-VBUuwi6HVb-30" vertex="1">
          <mxGeometry x="180" width="60" height="60" as="geometry">
            <mxRectangle width="60" height="60" as="alternateBounds" />
          </mxGeometry>
        </mxCell>
        <mxCell id="FWrRMuIiG-VBUuwi6HVb-35" value="29" style="shape=partialRectangle;html=1;whiteSpace=wrap;connectable=0;overflow=hidden;fillColor=none;top=0;left=0;bottom=0;right=0;pointerEvents=1;" parent="FWrRMuIiG-VBUuwi6HVb-30" vertex="1">
          <mxGeometry x="240" width="60" height="60" as="geometry">
            <mxRectangle width="60" height="60" as="alternateBounds" />
          </mxGeometry>
        </mxCell>
        <mxCell id="FWrRMuIiG-VBUuwi6HVb-36" value="30" style="shape=partialRectangle;html=1;whiteSpace=wrap;connectable=0;overflow=hidden;fillColor=none;top=0;left=0;bottom=0;right=0;pointerEvents=1;" parent="FWrRMuIiG-VBUuwi6HVb-30" vertex="1">
          <mxGeometry x="300" width="60" height="60" as="geometry">
            <mxRectangle width="60" height="60" as="alternateBounds" />
          </mxGeometry>
        </mxCell>
        <mxCell id="FWrRMuIiG-VBUuwi6HVb-37" value="" style="shape=tableRow;horizontal=0;startSize=0;swimlaneHead=0;swimlaneBody=0;top=0;left=0;bottom=0;right=0;collapsible=0;dropTarget=0;fillColor=none;points=[[0,0.5],[1,0.5]];portConstraint=eastwest;" parent="FWrRMuIiG-VBUuwi6HVb-1" vertex="1">
          <mxGeometry y="300" width="360" height="60" as="geometry" />
        </mxCell>
        <mxCell id="FWrRMuIiG-VBUuwi6HVb-38" value="31" style="shape=partialRectangle;html=1;whiteSpace=wrap;connectable=0;overflow=hidden;fillColor=none;top=0;left=0;bottom=0;right=0;pointerEvents=1;" parent="FWrRMuIiG-VBUuwi6HVb-37" vertex="1">
          <mxGeometry width="60" height="60" as="geometry">
            <mxRectangle width="60" height="60" as="alternateBounds" />
          </mxGeometry>
        </mxCell>
        <mxCell id="FWrRMuIiG-VBUuwi6HVb-39" value="32" style="shape=partialRectangle;html=1;whiteSpace=wrap;connectable=0;overflow=hidden;fillColor=none;top=0;left=0;bottom=0;right=0;pointerEvents=1;" parent="FWrRMuIiG-VBUuwi6HVb-37" vertex="1">
          <mxGeometry x="60" width="60" height="60" as="geometry">
            <mxRectangle width="60" height="60" as="alternateBounds" />
          </mxGeometry>
        </mxCell>
        <mxCell id="FWrRMuIiG-VBUuwi6HVb-40" value="33" style="shape=partialRectangle;html=1;whiteSpace=wrap;connectable=0;overflow=hidden;fillColor=none;top=0;left=0;bottom=0;right=0;pointerEvents=1;" parent="FWrRMuIiG-VBUuwi6HVb-37" vertex="1">
          <mxGeometry x="120" width="60" height="60" as="geometry">
            <mxRectangle width="60" height="60" as="alternateBounds" />
          </mxGeometry>
        </mxCell>
        <mxCell id="FWrRMuIiG-VBUuwi6HVb-41" value="34" style="shape=partialRectangle;html=1;whiteSpace=wrap;connectable=0;overflow=hidden;fillColor=none;top=0;left=0;bottom=0;right=0;pointerEvents=1;" parent="FWrRMuIiG-VBUuwi6HVb-37" vertex="1">
          <mxGeometry x="180" width="60" height="60" as="geometry">
            <mxRectangle width="60" height="60" as="alternateBounds" />
          </mxGeometry>
        </mxCell>
        <mxCell id="FWrRMuIiG-VBUuwi6HVb-42" value="35" style="shape=partialRectangle;html=1;whiteSpace=wrap;connectable=0;overflow=hidden;fillColor=none;top=0;left=0;bottom=0;right=0;pointerEvents=1;" parent="FWrRMuIiG-VBUuwi6HVb-37" vertex="1">
          <mxGeometry x="240" width="60" height="60" as="geometry">
            <mxRectangle width="60" height="60" as="alternateBounds" />
          </mxGeometry>
        </mxCell>
        <mxCell id="FWrRMuIiG-VBUuwi6HVb-43" value="36" style="shape=partialRectangle;html=1;whiteSpace=wrap;connectable=0;overflow=hidden;fillColor=none;top=0;left=0;bottom=0;right=0;pointerEvents=1;" parent="FWrRMuIiG-VBUuwi6HVb-37" vertex="1">
          <mxGeometry x="300" width="60" height="60" as="geometry">
            <mxRectangle width="60" height="60" as="alternateBounds" />
          </mxGeometry>
        </mxCell>
        <mxCell id="FWrRMuIiG-VBUuwi6HVb-47" value="" style="fontColor=#0066CC;verticalAlign=top;verticalLabelPosition=bottom;labelPosition=center;align=center;html=1;outlineConnect=0;fillColor=#CCCCCC;strokeColor=#6881B3;gradientColor=none;gradientDirection=north;strokeWidth=2;shape=mxgraph.networks.user_male;" parent="1" vertex="1">
          <mxGeometry x="210" y="180" width="20" height="40" as="geometry" />
        </mxCell>
        <mxCell id="FWrRMuIiG-VBUuwi6HVb-48" value="" style="shape=table;startSize=0;container=1;collapsible=0;childLayout=tableLayout;" parent="1" vertex="1">
          <mxGeometry x="500" y="40" width="360" height="360" as="geometry" />
        </mxCell>
        <mxCell id="FWrRMuIiG-VBUuwi6HVb-49" value="" style="shape=tableRow;horizontal=0;startSize=0;swimlaneHead=0;swimlaneBody=0;top=0;left=0;bottom=0;right=0;collapsible=0;dropTarget=0;fillColor=none;points=[[0,0.5],[1,0.5]];portConstraint=eastwest;" parent="FWrRMuIiG-VBUuwi6HVb-48" vertex="1">
          <mxGeometry width="360" height="60" as="geometry" />
        </mxCell>
        <mxCell id="FWrRMuIiG-VBUuwi6HVb-50" value="1" style="shape=partialRectangle;html=1;whiteSpace=wrap;connectable=0;overflow=hidden;fillColor=none;top=0;left=0;bottom=0;right=0;pointerEvents=1;" parent="FWrRMuIiG-VBUuwi6HVb-49" vertex="1">
          <mxGeometry width="60" height="60" as="geometry">
            <mxRectangle width="60" height="60" as="alternateBounds" />
          </mxGeometry>
        </mxCell>
        <mxCell id="FWrRMuIiG-VBUuwi6HVb-51" value="2" style="shape=partialRectangle;html=1;whiteSpace=wrap;connectable=0;overflow=hidden;fillColor=none;top=0;left=0;bottom=0;right=0;pointerEvents=1;" parent="FWrRMuIiG-VBUuwi6HVb-49" vertex="1">
          <mxGeometry x="60" width="60" height="60" as="geometry">
            <mxRectangle width="60" height="60" as="alternateBounds" />
          </mxGeometry>
        </mxCell>
        <mxCell id="FWrRMuIiG-VBUuwi6HVb-52" value="3" style="shape=partialRectangle;html=1;whiteSpace=wrap;connectable=0;overflow=hidden;fillColor=none;top=0;left=0;bottom=0;right=0;pointerEvents=1;" parent="FWrRMuIiG-VBUuwi6HVb-49" vertex="1">
          <mxGeometry x="120" width="60" height="60" as="geometry">
            <mxRectangle width="60" height="60" as="alternateBounds" />
          </mxGeometry>
        </mxCell>
        <mxCell id="FWrRMuIiG-VBUuwi6HVb-53" value="4" style="shape=partialRectangle;html=1;whiteSpace=wrap;connectable=0;overflow=hidden;fillColor=none;top=0;left=0;bottom=0;right=0;pointerEvents=1;" parent="FWrRMuIiG-VBUuwi6HVb-49" vertex="1">
          <mxGeometry x="180" width="60" height="60" as="geometry">
            <mxRectangle width="60" height="60" as="alternateBounds" />
          </mxGeometry>
        </mxCell>
        <mxCell id="FWrRMuIiG-VBUuwi6HVb-54" value="5" style="shape=partialRectangle;html=1;whiteSpace=wrap;connectable=0;overflow=hidden;fillColor=none;top=0;left=0;bottom=0;right=0;pointerEvents=1;" parent="FWrRMuIiG-VBUuwi6HVb-49" vertex="1">
          <mxGeometry x="240" width="60" height="60" as="geometry">
            <mxRectangle width="60" height="60" as="alternateBounds" />
          </mxGeometry>
        </mxCell>
        <mxCell id="FWrRMuIiG-VBUuwi6HVb-55" value="6" style="shape=partialRectangle;html=1;whiteSpace=wrap;connectable=0;overflow=hidden;fillColor=none;top=0;left=0;bottom=0;right=0;pointerEvents=1;" parent="FWrRMuIiG-VBUuwi6HVb-49" vertex="1">
          <mxGeometry x="300" width="60" height="60" as="geometry">
            <mxRectangle width="60" height="60" as="alternateBounds" />
          </mxGeometry>
        </mxCell>
        <mxCell id="FWrRMuIiG-VBUuwi6HVb-56" value="" style="shape=tableRow;horizontal=0;startSize=0;swimlaneHead=0;swimlaneBody=0;top=0;left=0;bottom=0;right=0;collapsible=0;dropTarget=0;fillColor=none;points=[[0,0.5],[1,0.5]];portConstraint=eastwest;" parent="FWrRMuIiG-VBUuwi6HVb-48" vertex="1">
          <mxGeometry y="60" width="360" height="60" as="geometry" />
        </mxCell>
        <mxCell id="FWrRMuIiG-VBUuwi6HVb-57" value="7" style="shape=partialRectangle;html=1;whiteSpace=wrap;connectable=0;overflow=hidden;fillColor=none;top=0;left=0;bottom=0;right=0;pointerEvents=1;" parent="FWrRMuIiG-VBUuwi6HVb-56" vertex="1">
          <mxGeometry width="60" height="60" as="geometry">
            <mxRectangle width="60" height="60" as="alternateBounds" />
          </mxGeometry>
        </mxCell>
        <mxCell id="FWrRMuIiG-VBUuwi6HVb-58" value="8" style="shape=partialRectangle;html=1;whiteSpace=wrap;connectable=0;overflow=hidden;fillColor=#d5e8d4;top=0;left=0;bottom=0;right=0;pointerEvents=1;strokeColor=#82b366;" parent="FWrRMuIiG-VBUuwi6HVb-56" vertex="1">
          <mxGeometry x="60" width="60" height="60" as="geometry">
            <mxRectangle width="60" height="60" as="alternateBounds" />
          </mxGeometry>
        </mxCell>
        <mxCell id="FWrRMuIiG-VBUuwi6HVb-59" value="9" style="shape=partialRectangle;html=1;whiteSpace=wrap;connectable=0;overflow=hidden;fillColor=#d5e8d4;top=0;left=0;bottom=0;right=0;pointerEvents=1;strokeColor=#82b366;" parent="FWrRMuIiG-VBUuwi6HVb-56" vertex="1">
          <mxGeometry x="120" width="60" height="60" as="geometry">
            <mxRectangle width="60" height="60" as="alternateBounds" />
          </mxGeometry>
        </mxCell>
        <mxCell id="FWrRMuIiG-VBUuwi6HVb-60" value="10" style="shape=partialRectangle;html=1;whiteSpace=wrap;connectable=0;overflow=hidden;fillColor=#d5e8d4;top=0;left=0;bottom=0;right=0;pointerEvents=1;strokeColor=#82b366;" parent="FWrRMuIiG-VBUuwi6HVb-56" vertex="1">
          <mxGeometry x="180" width="60" height="60" as="geometry">
            <mxRectangle width="60" height="60" as="alternateBounds" />
          </mxGeometry>
        </mxCell>
        <mxCell id="FWrRMuIiG-VBUuwi6HVb-61" value="11" style="shape=partialRectangle;html=1;whiteSpace=wrap;connectable=0;overflow=hidden;fillColor=none;top=0;left=0;bottom=0;right=0;pointerEvents=1;" parent="FWrRMuIiG-VBUuwi6HVb-56" vertex="1">
          <mxGeometry x="240" width="60" height="60" as="geometry">
            <mxRectangle width="60" height="60" as="alternateBounds" />
          </mxGeometry>
        </mxCell>
        <mxCell id="FWrRMuIiG-VBUuwi6HVb-62" value="12" style="shape=partialRectangle;html=1;whiteSpace=wrap;connectable=0;overflow=hidden;fillColor=none;top=0;left=0;bottom=0;right=0;pointerEvents=1;" parent="FWrRMuIiG-VBUuwi6HVb-56" vertex="1">
          <mxGeometry x="300" width="60" height="60" as="geometry">
            <mxRectangle width="60" height="60" as="alternateBounds" />
          </mxGeometry>
        </mxCell>
        <mxCell id="FWrRMuIiG-VBUuwi6HVb-63" value="" style="shape=tableRow;horizontal=0;startSize=0;swimlaneHead=0;swimlaneBody=0;top=0;left=0;bottom=0;right=0;collapsible=0;dropTarget=0;fillColor=none;points=[[0,0.5],[1,0.5]];portConstraint=eastwest;" parent="FWrRMuIiG-VBUuwi6HVb-48" vertex="1">
          <mxGeometry y="120" width="360" height="60" as="geometry" />
        </mxCell>
        <mxCell id="FWrRMuIiG-VBUuwi6HVb-64" value="13" style="shape=partialRectangle;html=1;whiteSpace=wrap;connectable=0;overflow=hidden;fillColor=none;top=0;left=0;bottom=0;right=0;pointerEvents=1;" parent="FWrRMuIiG-VBUuwi6HVb-63" vertex="1">
          <mxGeometry width="60" height="60" as="geometry">
            <mxRectangle width="60" height="60" as="alternateBounds" />
          </mxGeometry>
        </mxCell>
        <mxCell id="FWrRMuIiG-VBUuwi6HVb-65" value="14" style="shape=partialRectangle;html=1;whiteSpace=wrap;connectable=0;overflow=hidden;fillColor=#d5e8d4;top=0;left=0;bottom=0;right=0;pointerEvents=1;strokeColor=#82b366;" parent="FWrRMuIiG-VBUuwi6HVb-63" vertex="1">
          <mxGeometry x="60" width="60" height="60" as="geometry">
            <mxRectangle width="60" height="60" as="alternateBounds" />
          </mxGeometry>
        </mxCell>
        <mxCell id="FWrRMuIiG-VBUuwi6HVb-66" value="15" style="shape=partialRectangle;html=1;whiteSpace=wrap;connectable=0;overflow=hidden;fillColor=#ffe6cc;top=0;left=0;bottom=0;right=0;pointerEvents=1;strokeColor=#d79b00;" parent="FWrRMuIiG-VBUuwi6HVb-63" vertex="1">
          <mxGeometry x="120" width="60" height="60" as="geometry">
            <mxRectangle width="60" height="60" as="alternateBounds" />
          </mxGeometry>
        </mxCell>
        <mxCell id="FWrRMuIiG-VBUuwi6HVb-67" value="16" style="shape=partialRectangle;html=1;whiteSpace=wrap;connectable=0;overflow=hidden;fillColor=#ffe6cc;top=0;left=0;bottom=0;right=0;pointerEvents=1;strokeColor=#d79b00;" parent="FWrRMuIiG-VBUuwi6HVb-63" vertex="1">
          <mxGeometry x="180" width="60" height="60" as="geometry">
            <mxRectangle width="60" height="60" as="alternateBounds" />
          </mxGeometry>
        </mxCell>
        <mxCell id="FWrRMuIiG-VBUuwi6HVb-68" value="17" style="shape=partialRectangle;html=1;whiteSpace=wrap;connectable=0;overflow=hidden;fillColor=#f8cecc;top=0;left=0;bottom=0;right=0;pointerEvents=1;strokeColor=#b85450;" parent="FWrRMuIiG-VBUuwi6HVb-63" vertex="1">
          <mxGeometry x="240" width="60" height="60" as="geometry">
            <mxRectangle width="60" height="60" as="alternateBounds" />
          </mxGeometry>
        </mxCell>
        <mxCell id="FWrRMuIiG-VBUuwi6HVb-69" value="18" style="shape=partialRectangle;html=1;whiteSpace=wrap;connectable=0;overflow=hidden;fillColor=none;top=0;left=0;bottom=0;right=0;pointerEvents=1;" parent="FWrRMuIiG-VBUuwi6HVb-63" vertex="1">
          <mxGeometry x="300" width="60" height="60" as="geometry">
            <mxRectangle width="60" height="60" as="alternateBounds" />
          </mxGeometry>
        </mxCell>
        <mxCell id="FWrRMuIiG-VBUuwi6HVb-70" value="" style="shape=tableRow;horizontal=0;startSize=0;swimlaneHead=0;swimlaneBody=0;top=0;left=0;bottom=0;right=0;collapsible=0;dropTarget=0;fillColor=none;points=[[0,0.5],[1,0.5]];portConstraint=eastwest;" parent="FWrRMuIiG-VBUuwi6HVb-48" vertex="1">
          <mxGeometry y="180" width="360" height="60" as="geometry" />
        </mxCell>
        <mxCell id="FWrRMuIiG-VBUuwi6HVb-71" value="19" style="shape=partialRectangle;html=1;whiteSpace=wrap;connectable=0;overflow=hidden;fillColor=none;top=0;left=0;bottom=0;right=0;pointerEvents=1;" parent="FWrRMuIiG-VBUuwi6HVb-70" vertex="1">
          <mxGeometry width="60" height="60" as="geometry">
            <mxRectangle width="60" height="60" as="alternateBounds" />
          </mxGeometry>
        </mxCell>
        <mxCell id="FWrRMuIiG-VBUuwi6HVb-72" value="20" style="shape=partialRectangle;html=1;whiteSpace=wrap;connectable=0;overflow=hidden;fillColor=#d5e8d4;top=0;left=0;bottom=0;right=0;pointerEvents=1;strokeColor=#82b366;" parent="FWrRMuIiG-VBUuwi6HVb-70" vertex="1">
          <mxGeometry x="60" width="60" height="60" as="geometry">
            <mxRectangle width="60" height="60" as="alternateBounds" />
          </mxGeometry>
        </mxCell>
        <mxCell id="FWrRMuIiG-VBUuwi6HVb-73" value="21" style="shape=partialRectangle;html=1;whiteSpace=wrap;connectable=0;overflow=hidden;fillColor=#ffe6cc;top=0;left=0;bottom=0;right=0;pointerEvents=1;strokeColor=#d79b00;" parent="FWrRMuIiG-VBUuwi6HVb-70" vertex="1">
          <mxGeometry x="120" width="60" height="60" as="geometry">
            <mxRectangle width="60" height="60" as="alternateBounds" />
          </mxGeometry>
        </mxCell>
        <mxCell id="FWrRMuIiG-VBUuwi6HVb-74" value="22" style="shape=partialRectangle;html=1;whiteSpace=wrap;connectable=0;overflow=hidden;fillColor=#ffe6cc;top=0;left=0;bottom=0;right=0;pointerEvents=1;strokeColor=#d79b00;" parent="FWrRMuIiG-VBUuwi6HVb-70" vertex="1">
          <mxGeometry x="180" width="60" height="60" as="geometry">
            <mxRectangle width="60" height="60" as="alternateBounds" />
          </mxGeometry>
        </mxCell>
        <mxCell id="FWrRMuIiG-VBUuwi6HVb-75" value="23" style="shape=partialRectangle;html=1;whiteSpace=wrap;connectable=0;overflow=hidden;fillColor=#f8cecc;top=0;left=0;bottom=0;right=0;pointerEvents=1;strokeColor=#b85450;" parent="FWrRMuIiG-VBUuwi6HVb-70" vertex="1">
          <mxGeometry x="240" width="60" height="60" as="geometry">
            <mxRectangle width="60" height="60" as="alternateBounds" />
          </mxGeometry>
        </mxCell>
        <mxCell id="FWrRMuIiG-VBUuwi6HVb-76" value="24" style="shape=partialRectangle;html=1;whiteSpace=wrap;connectable=0;overflow=hidden;fillColor=none;top=0;left=0;bottom=0;right=0;pointerEvents=1;" parent="FWrRMuIiG-VBUuwi6HVb-70" vertex="1">
          <mxGeometry x="300" width="60" height="60" as="geometry">
            <mxRectangle width="60" height="60" as="alternateBounds" />
          </mxGeometry>
        </mxCell>
        <mxCell id="FWrRMuIiG-VBUuwi6HVb-77" value="" style="shape=tableRow;horizontal=0;startSize=0;swimlaneHead=0;swimlaneBody=0;top=0;left=0;bottom=0;right=0;collapsible=0;dropTarget=0;fillColor=none;points=[[0,0.5],[1,0.5]];portConstraint=eastwest;" parent="FWrRMuIiG-VBUuwi6HVb-48" vertex="1">
          <mxGeometry y="240" width="360" height="60" as="geometry" />
        </mxCell>
        <mxCell id="FWrRMuIiG-VBUuwi6HVb-78" value="25" style="shape=partialRectangle;html=1;whiteSpace=wrap;connectable=0;overflow=hidden;fillColor=none;top=0;left=0;bottom=0;right=0;pointerEvents=1;" parent="FWrRMuIiG-VBUuwi6HVb-77" vertex="1">
          <mxGeometry width="60" height="60" as="geometry">
            <mxRectangle width="60" height="60" as="alternateBounds" />
          </mxGeometry>
        </mxCell>
        <mxCell id="FWrRMuIiG-VBUuwi6HVb-79" value="26" style="shape=partialRectangle;html=1;whiteSpace=wrap;connectable=0;overflow=hidden;fillColor=none;top=0;left=0;bottom=0;right=0;pointerEvents=1;" parent="FWrRMuIiG-VBUuwi6HVb-77" vertex="1">
          <mxGeometry x="60" width="60" height="60" as="geometry">
            <mxRectangle width="60" height="60" as="alternateBounds" />
          </mxGeometry>
        </mxCell>
        <mxCell id="FWrRMuIiG-VBUuwi6HVb-80" value="27" style="shape=partialRectangle;html=1;whiteSpace=wrap;connectable=0;overflow=hidden;fillColor=#f8cecc;top=0;left=0;bottom=0;right=0;pointerEvents=1;strokeColor=#b85450;" parent="FWrRMuIiG-VBUuwi6HVb-77" vertex="1">
          <mxGeometry x="120" width="60" height="60" as="geometry">
            <mxRectangle width="60" height="60" as="alternateBounds" />
          </mxGeometry>
        </mxCell>
        <mxCell id="FWrRMuIiG-VBUuwi6HVb-81" value="28" style="shape=partialRectangle;html=1;whiteSpace=wrap;connectable=0;overflow=hidden;fillColor=#f8cecc;top=0;left=0;bottom=0;right=0;pointerEvents=1;strokeColor=#b85450;" parent="FWrRMuIiG-VBUuwi6HVb-77" vertex="1">
          <mxGeometry x="180" width="60" height="60" as="geometry">
            <mxRectangle width="60" height="60" as="alternateBounds" />
          </mxGeometry>
        </mxCell>
        <mxCell id="FWrRMuIiG-VBUuwi6HVb-82" value="29" style="shape=partialRectangle;html=1;whiteSpace=wrap;connectable=0;overflow=hidden;fillColor=#f8cecc;top=0;left=0;bottom=0;right=0;pointerEvents=1;strokeColor=#b85450;" parent="FWrRMuIiG-VBUuwi6HVb-77" vertex="1">
          <mxGeometry x="240" width="60" height="60" as="geometry">
            <mxRectangle width="60" height="60" as="alternateBounds" />
          </mxGeometry>
        </mxCell>
        <mxCell id="FWrRMuIiG-VBUuwi6HVb-83" value="30" style="shape=partialRectangle;html=1;whiteSpace=wrap;connectable=0;overflow=hidden;fillColor=none;top=0;left=0;bottom=0;right=0;pointerEvents=1;" parent="FWrRMuIiG-VBUuwi6HVb-77" vertex="1">
          <mxGeometry x="300" width="60" height="60" as="geometry">
            <mxRectangle width="60" height="60" as="alternateBounds" />
          </mxGeometry>
        </mxCell>
        <mxCell id="FWrRMuIiG-VBUuwi6HVb-84" value="" style="shape=tableRow;horizontal=0;startSize=0;swimlaneHead=0;swimlaneBody=0;top=0;left=0;bottom=0;right=0;collapsible=0;dropTarget=0;fillColor=none;points=[[0,0.5],[1,0.5]];portConstraint=eastwest;" parent="FWrRMuIiG-VBUuwi6HVb-48" vertex="1">
          <mxGeometry y="300" width="360" height="60" as="geometry" />
        </mxCell>
        <mxCell id="FWrRMuIiG-VBUuwi6HVb-85" value="31" style="shape=partialRectangle;html=1;whiteSpace=wrap;connectable=0;overflow=hidden;fillColor=none;top=0;left=0;bottom=0;right=0;pointerEvents=1;" parent="FWrRMuIiG-VBUuwi6HVb-84" vertex="1">
          <mxGeometry width="60" height="60" as="geometry">
            <mxRectangle width="60" height="60" as="alternateBounds" />
          </mxGeometry>
        </mxCell>
        <mxCell id="FWrRMuIiG-VBUuwi6HVb-86" value="32" style="shape=partialRectangle;html=1;whiteSpace=wrap;connectable=0;overflow=hidden;fillColor=none;top=0;left=0;bottom=0;right=0;pointerEvents=1;" parent="FWrRMuIiG-VBUuwi6HVb-84" vertex="1">
          <mxGeometry x="60" width="60" height="60" as="geometry">
            <mxRectangle width="60" height="60" as="alternateBounds" />
          </mxGeometry>
        </mxCell>
        <mxCell id="FWrRMuIiG-VBUuwi6HVb-87" value="33" style="shape=partialRectangle;html=1;whiteSpace=wrap;connectable=0;overflow=hidden;fillColor=none;top=0;left=0;bottom=0;right=0;pointerEvents=1;" parent="FWrRMuIiG-VBUuwi6HVb-84" vertex="1">
          <mxGeometry x="120" width="60" height="60" as="geometry">
            <mxRectangle width="60" height="60" as="alternateBounds" />
          </mxGeometry>
        </mxCell>
        <mxCell id="FWrRMuIiG-VBUuwi6HVb-88" value="34" style="shape=partialRectangle;html=1;whiteSpace=wrap;connectable=0;overflow=hidden;fillColor=none;top=0;left=0;bottom=0;right=0;pointerEvents=1;" parent="FWrRMuIiG-VBUuwi6HVb-84" vertex="1">
          <mxGeometry x="180" width="60" height="60" as="geometry">
            <mxRectangle width="60" height="60" as="alternateBounds" />
          </mxGeometry>
        </mxCell>
        <mxCell id="FWrRMuIiG-VBUuwi6HVb-89" value="35" style="shape=partialRectangle;html=1;whiteSpace=wrap;connectable=0;overflow=hidden;fillColor=none;top=0;left=0;bottom=0;right=0;pointerEvents=1;" parent="FWrRMuIiG-VBUuwi6HVb-84" vertex="1">
          <mxGeometry x="240" width="60" height="60" as="geometry">
            <mxRectangle width="60" height="60" as="alternateBounds" />
          </mxGeometry>
        </mxCell>
        <mxCell id="FWrRMuIiG-VBUuwi6HVb-90" value="36" style="shape=partialRectangle;html=1;whiteSpace=wrap;connectable=0;overflow=hidden;fillColor=none;top=0;left=0;bottom=0;right=0;pointerEvents=1;" parent="FWrRMuIiG-VBUuwi6HVb-84" vertex="1">
          <mxGeometry x="300" width="60" height="60" as="geometry">
            <mxRectangle width="60" height="60" as="alternateBounds" />
          </mxGeometry>
        </mxCell>
        <mxCell id="FWrRMuIiG-VBUuwi6HVb-91" value="" style="fontColor=#0066CC;verticalAlign=top;verticalLabelPosition=bottom;labelPosition=center;align=center;html=1;outlineConnect=0;fillColor=#CCCCCC;strokeColor=#6881B3;gradientColor=none;gradientDirection=north;strokeWidth=2;shape=mxgraph.networks.user_male;" parent="1" vertex="1">
          <mxGeometry x="680" y="240" width="20" height="40" as="geometry" />
        </mxCell>
        <mxCell id="FWrRMuIiG-VBUuwi6HVb-92" value="" style="verticalAlign=top;verticalLabelPosition=bottom;labelPosition=center;align=center;html=1;outlineConnect=0;fillColor=#eeeeee;strokeColor=#36393d;gradientDirection=north;strokeWidth=2;shape=mxgraph.networks.user_male;dashed=1;" parent="1" vertex="1">
          <mxGeometry x="620" y="180" width="20" height="40" as="geometry" />
        </mxCell>
        <mxCell id="FWrRMuIiG-VBUuwi6HVb-96" value="" style="endArrow=classic;html=1;rounded=0;exitX=1;exitY=0.5;exitDx=0;exitDy=0;exitPerimeter=0;strokeWidth=2;" parent="1" source="FWrRMuIiG-VBUuwi6HVb-92" target="FWrRMuIiG-VBUuwi6HVb-91" edge="1">
          <mxGeometry width="50" height="50" relative="1" as="geometry">
            <mxPoint x="660" y="220" as="sourcePoint" />
            <mxPoint x="710" y="170" as="targetPoint" />
          </mxGeometry>
        </mxCell>
        <mxCell id="FWrRMuIiG-VBUuwi6HVb-99" value="" style="fontColor=#0066CC;verticalAlign=top;verticalLabelPosition=bottom;labelPosition=center;align=center;html=1;outlineConnect=0;fillColor=#CCCCCC;strokeColor=#6881B3;gradientColor=none;gradientDirection=north;strokeWidth=2;shape=mxgraph.networks.user_male;dashed=1;" parent="1" vertex="1">
          <mxGeometry x="172.5" y="765" width="30" height="70" as="geometry" />
        </mxCell>
        <mxCell id="FWrRMuIiG-VBUuwi6HVb-100" value="" style="fontColor=#0066CC;verticalAlign=top;verticalLabelPosition=bottom;labelPosition=center;align=center;html=1;outlineConnect=0;fillColor=#CCCCCC;strokeColor=#6881B3;gradientColor=none;gradientDirection=north;strokeWidth=2;shape=mxgraph.networks.user_male;dashed=1;" parent="1" vertex="1">
          <mxGeometry x="52.5" y="870" width="30" height="70" as="geometry" />
        </mxCell>
        <mxCell id="FWrRMuIiG-VBUuwi6HVb-103" value="" style="edgeStyle=orthogonalEdgeStyle;rounded=0;orthogonalLoop=1;jettySize=auto;html=1;strokeWidth=2;" parent="1" source="FWrRMuIiG-VBUuwi6HVb-101" target="FWrRMuIiG-VBUuwi6HVb-99" edge="1">
          <mxGeometry relative="1" as="geometry" />
        </mxCell>
        <mxCell id="FWrRMuIiG-VBUuwi6HVb-104" value="" style="rounded=0;orthogonalLoop=1;jettySize=auto;html=1;strokeWidth=2;" parent="1" source="FWrRMuIiG-VBUuwi6HVb-101" target="FWrRMuIiG-VBUuwi6HVb-100" edge="1">
          <mxGeometry relative="1" as="geometry" />
        </mxCell>
        <mxCell id="FWrRMuIiG-VBUuwi6HVb-106" value="" style="edgeStyle=none;rounded=0;orthogonalLoop=1;jettySize=auto;html=1;strokeWidth=2;" parent="1" source="FWrRMuIiG-VBUuwi6HVb-101" target="FWrRMuIiG-VBUuwi6HVb-105" edge="1">
          <mxGeometry relative="1" as="geometry" />
        </mxCell>
        <mxCell id="FWrRMuIiG-VBUuwi6HVb-108" value="" style="edgeStyle=none;rounded=0;orthogonalLoop=1;jettySize=auto;html=1;strokeWidth=2;" parent="1" source="FWrRMuIiG-VBUuwi6HVb-101" target="FWrRMuIiG-VBUuwi6HVb-107" edge="1">
          <mxGeometry relative="1" as="geometry" />
        </mxCell>
        <mxCell id="FWrRMuIiG-VBUuwi6HVb-101" value="" style="verticalAlign=top;verticalLabelPosition=bottom;labelPosition=center;align=center;html=1;outlineConnect=0;fillColor=#ffcccc;strokeColor=#36393d;gradientDirection=north;strokeWidth=2;shape=mxgraph.networks.user_male;dashed=1;" parent="1" vertex="1">
          <mxGeometry x="172.5" y="880" width="30" height="70" as="geometry" />
        </mxCell>
        <mxCell id="FWrRMuIiG-VBUuwi6HVb-105" value="" style="verticalAlign=top;verticalLabelPosition=bottom;labelPosition=center;align=center;html=1;outlineConnect=0;fillColor=#eeeeee;strokeColor=#36393d;gradientDirection=north;strokeWidth=2;shape=mxgraph.networks.user_male;dashed=1;" parent="1" vertex="1">
          <mxGeometry x="72.5" y="680" width="30" height="70" as="geometry" />
        </mxCell>
        <mxCell id="FWrRMuIiG-VBUuwi6HVb-107" value="" style="verticalAlign=top;verticalLabelPosition=bottom;labelPosition=center;align=center;html=1;outlineConnect=0;fillColor=#eeeeee;strokeColor=#36393d;gradientDirection=north;strokeWidth=2;shape=mxgraph.networks.user_male;dashed=1;" parent="1" vertex="1">
          <mxGeometry x="372.5" y="810" width="30" height="70" as="geometry" />
        </mxCell>
        <mxCell id="FWrRMuIiG-VBUuwi6HVb-109" value="" style="shape=table;startSize=0;container=1;collapsible=0;childLayout=tableLayout;strokeWidth=1;" parent="1" vertex="1">
          <mxGeometry x="740" y="560" width="360" height="337" as="geometry" />
        </mxCell>
        <mxCell id="FWrRMuIiG-VBUuwi6HVb-110" value="" style="shape=tableRow;horizontal=0;startSize=0;swimlaneHead=0;swimlaneBody=0;top=0;left=0;bottom=0;right=0;collapsible=0;dropTarget=0;fillColor=none;points=[[0,0.5],[1,0.5]];portConstraint=eastwest;dashed=1;strokeWidth=3;" parent="FWrRMuIiG-VBUuwi6HVb-109" vertex="1">
          <mxGeometry width="360" height="60" as="geometry" />
        </mxCell>
        <mxCell id="FWrRMuIiG-VBUuwi6HVb-111" value="1" style="shape=partialRectangle;html=1;whiteSpace=wrap;connectable=0;overflow=hidden;fillColor=none;top=0;left=0;bottom=0;right=0;pointerEvents=1;dashed=1;strokeWidth=3;" parent="FWrRMuIiG-VBUuwi6HVb-110" vertex="1">
          <mxGeometry width="60" height="60" as="geometry">
            <mxRectangle width="60" height="60" as="alternateBounds" />
          </mxGeometry>
        </mxCell>
        <mxCell id="FWrRMuIiG-VBUuwi6HVb-112" value="2" style="shape=partialRectangle;html=1;whiteSpace=wrap;connectable=0;overflow=hidden;fillColor=none;top=0;left=0;bottom=0;right=0;pointerEvents=1;dashed=1;strokeWidth=3;" parent="FWrRMuIiG-VBUuwi6HVb-110" vertex="1">
          <mxGeometry x="60" width="60" height="60" as="geometry">
            <mxRectangle width="60" height="60" as="alternateBounds" />
          </mxGeometry>
        </mxCell>
        <mxCell id="FWrRMuIiG-VBUuwi6HVb-113" value="3" style="shape=partialRectangle;html=1;whiteSpace=wrap;connectable=0;overflow=hidden;fillColor=#cdeb8b;top=0;left=0;bottom=0;right=0;pointerEvents=1;dashed=1;strokeWidth=3;strokeColor=#36393d;" parent="FWrRMuIiG-VBUuwi6HVb-110" vertex="1">
          <mxGeometry x="120" width="60" height="60" as="geometry">
            <mxRectangle width="60" height="60" as="alternateBounds" />
          </mxGeometry>
        </mxCell>
        <mxCell id="FWrRMuIiG-VBUuwi6HVb-114" value="4" style="shape=partialRectangle;html=1;whiteSpace=wrap;connectable=0;overflow=hidden;fillColor=#cdeb8b;top=0;left=0;bottom=0;right=0;pointerEvents=1;dashed=1;strokeWidth=3;strokeColor=#36393d;" parent="FWrRMuIiG-VBUuwi6HVb-110" vertex="1">
          <mxGeometry x="180" width="60" height="60" as="geometry">
            <mxRectangle width="60" height="60" as="alternateBounds" />
          </mxGeometry>
        </mxCell>
        <mxCell id="FWrRMuIiG-VBUuwi6HVb-115" value="5" style="shape=partialRectangle;html=1;whiteSpace=wrap;connectable=0;overflow=hidden;fillColor=#cdeb8b;top=0;left=0;bottom=0;right=0;pointerEvents=1;dashed=1;strokeWidth=3;strokeColor=#36393d;" parent="FWrRMuIiG-VBUuwi6HVb-110" vertex="1">
          <mxGeometry x="240" width="60" height="60" as="geometry">
            <mxRectangle width="60" height="60" as="alternateBounds" />
          </mxGeometry>
        </mxCell>
        <mxCell id="FWrRMuIiG-VBUuwi6HVb-116" value="6" style="shape=partialRectangle;html=1;whiteSpace=wrap;connectable=0;overflow=hidden;fillColor=none;top=0;left=0;bottom=0;right=0;pointerEvents=1;dashed=1;strokeWidth=3;" parent="FWrRMuIiG-VBUuwi6HVb-110" vertex="1">
          <mxGeometry x="300" width="60" height="60" as="geometry">
            <mxRectangle width="60" height="60" as="alternateBounds" />
          </mxGeometry>
        </mxCell>
        <mxCell id="FWrRMuIiG-VBUuwi6HVb-117" value="" style="shape=tableRow;horizontal=0;startSize=0;swimlaneHead=0;swimlaneBody=0;top=0;left=0;bottom=0;right=0;collapsible=0;dropTarget=0;fillColor=none;points=[[0,0.5],[1,0.5]];portConstraint=eastwest;dashed=1;strokeWidth=3;" parent="FWrRMuIiG-VBUuwi6HVb-109" vertex="1">
          <mxGeometry y="60" width="360" height="55" as="geometry" />
        </mxCell>
        <mxCell id="FWrRMuIiG-VBUuwi6HVb-118" value="7" style="shape=partialRectangle;html=1;whiteSpace=wrap;connectable=0;overflow=hidden;fillColor=none;top=0;left=0;bottom=0;right=0;pointerEvents=1;dashed=1;strokeWidth=3;" parent="FWrRMuIiG-VBUuwi6HVb-117" vertex="1">
          <mxGeometry width="60" height="55" as="geometry">
            <mxRectangle width="60" height="55" as="alternateBounds" />
          </mxGeometry>
        </mxCell>
        <mxCell id="FWrRMuIiG-VBUuwi6HVb-119" value="8" style="shape=partialRectangle;html=1;whiteSpace=wrap;connectable=0;overflow=hidden;fillColor=#ffcccc;top=0;left=0;bottom=0;right=0;pointerEvents=1;dashed=1;strokeWidth=3;strokeColor=#36393d;" parent="FWrRMuIiG-VBUuwi6HVb-117" vertex="1">
          <mxGeometry x="60" width="60" height="55" as="geometry">
            <mxRectangle width="60" height="55" as="alternateBounds" />
          </mxGeometry>
        </mxCell>
        <mxCell id="FWrRMuIiG-VBUuwi6HVb-120" value="9" style="shape=partialRectangle;html=1;whiteSpace=wrap;connectable=0;overflow=hidden;fillColor=#ffcc99;top=0;left=0;bottom=0;right=0;pointerEvents=1;dashed=1;strokeWidth=3;strokeColor=#36393d;" parent="FWrRMuIiG-VBUuwi6HVb-117" vertex="1">
          <mxGeometry x="120" width="60" height="55" as="geometry">
            <mxRectangle width="60" height="55" as="alternateBounds" />
          </mxGeometry>
        </mxCell>
        <mxCell id="FWrRMuIiG-VBUuwi6HVb-121" value="10" style="shape=partialRectangle;html=1;whiteSpace=wrap;connectable=0;overflow=hidden;fillColor=#cdeb8b;top=0;left=0;bottom=0;right=0;pointerEvents=1;dashed=1;strokeWidth=3;strokeColor=#36393d;" parent="FWrRMuIiG-VBUuwi6HVb-117" vertex="1">
          <mxGeometry x="180" width="60" height="55" as="geometry">
            <mxRectangle width="60" height="55" as="alternateBounds" />
          </mxGeometry>
        </mxCell>
        <mxCell id="FWrRMuIiG-VBUuwi6HVb-122" value="11" style="shape=partialRectangle;html=1;whiteSpace=wrap;connectable=0;overflow=hidden;fillColor=#cdeb8b;top=0;left=0;bottom=0;right=0;pointerEvents=1;dashed=1;strokeWidth=3;strokeColor=#36393d;" parent="FWrRMuIiG-VBUuwi6HVb-117" vertex="1">
          <mxGeometry x="240" width="60" height="55" as="geometry">
            <mxRectangle width="60" height="55" as="alternateBounds" />
          </mxGeometry>
        </mxCell>
        <mxCell id="FWrRMuIiG-VBUuwi6HVb-123" value="12" style="shape=partialRectangle;html=1;whiteSpace=wrap;connectable=0;overflow=hidden;fillColor=none;top=0;left=0;bottom=0;right=0;pointerEvents=1;dashed=1;strokeWidth=3;" parent="FWrRMuIiG-VBUuwi6HVb-117" vertex="1">
          <mxGeometry x="300" width="60" height="55" as="geometry">
            <mxRectangle width="60" height="55" as="alternateBounds" />
          </mxGeometry>
        </mxCell>
        <mxCell id="FWrRMuIiG-VBUuwi6HVb-124" value="" style="shape=tableRow;horizontal=0;startSize=0;swimlaneHead=0;swimlaneBody=0;top=0;left=0;bottom=0;right=0;collapsible=0;dropTarget=0;fillColor=none;points=[[0,0.5],[1,0.5]];portConstraint=eastwest;dashed=1;strokeWidth=3;" parent="FWrRMuIiG-VBUuwi6HVb-109" vertex="1">
          <mxGeometry y="115" width="360" height="56" as="geometry" />
        </mxCell>
        <mxCell id="FWrRMuIiG-VBUuwi6HVb-125" value="13" style="shape=partialRectangle;html=1;whiteSpace=wrap;connectable=0;overflow=hidden;fillColor=none;top=0;left=0;bottom=0;right=0;pointerEvents=1;dashed=1;strokeWidth=3;" parent="FWrRMuIiG-VBUuwi6HVb-124" vertex="1">
          <mxGeometry width="60" height="56" as="geometry">
            <mxRectangle width="60" height="56" as="alternateBounds" />
          </mxGeometry>
        </mxCell>
        <mxCell id="FWrRMuIiG-VBUuwi6HVb-126" value="14" style="shape=partialRectangle;html=1;whiteSpace=wrap;connectable=0;overflow=hidden;fillColor=#ffcccc;top=0;left=0;bottom=0;right=0;pointerEvents=1;dashed=1;strokeWidth=3;strokeColor=#36393d;" parent="FWrRMuIiG-VBUuwi6HVb-124" vertex="1">
          <mxGeometry x="60" width="60" height="56" as="geometry">
            <mxRectangle width="60" height="56" as="alternateBounds" />
          </mxGeometry>
        </mxCell>
        <mxCell id="FWrRMuIiG-VBUuwi6HVb-127" value="15" style="shape=partialRectangle;html=1;whiteSpace=wrap;connectable=0;overflow=hidden;fillColor=#ffcc99;top=0;left=0;bottom=0;right=0;pointerEvents=1;dashed=1;strokeWidth=3;strokeColor=#36393d;" parent="FWrRMuIiG-VBUuwi6HVb-124" vertex="1">
          <mxGeometry x="120" width="60" height="56" as="geometry">
            <mxRectangle width="60" height="56" as="alternateBounds" />
          </mxGeometry>
        </mxCell>
        <mxCell id="FWrRMuIiG-VBUuwi6HVb-128" value="16" style="shape=partialRectangle;html=1;whiteSpace=wrap;connectable=0;overflow=hidden;fillColor=#cdeb8b;top=0;left=0;bottom=0;right=0;pointerEvents=1;dashed=1;strokeWidth=3;strokeColor=#36393d;" parent="FWrRMuIiG-VBUuwi6HVb-124" vertex="1">
          <mxGeometry x="180" width="60" height="56" as="geometry">
            <mxRectangle width="60" height="56" as="alternateBounds" />
          </mxGeometry>
        </mxCell>
        <mxCell id="FWrRMuIiG-VBUuwi6HVb-129" value="17" style="shape=partialRectangle;html=1;whiteSpace=wrap;connectable=0;overflow=hidden;fillColor=#cce5ff;top=0;left=0;bottom=0;right=0;pointerEvents=1;dashed=1;strokeWidth=3;strokeColor=#36393d;" parent="FWrRMuIiG-VBUuwi6HVb-124" vertex="1">
          <mxGeometry x="240" width="60" height="56" as="geometry">
            <mxRectangle width="60" height="56" as="alternateBounds" />
          </mxGeometry>
        </mxCell>
        <mxCell id="FWrRMuIiG-VBUuwi6HVb-130" value="18" style="shape=partialRectangle;html=1;whiteSpace=wrap;connectable=0;overflow=hidden;fillColor=#ffff88;top=0;left=0;bottom=0;right=0;pointerEvents=1;dashed=1;strokeWidth=3;strokeColor=#36393d;" parent="FWrRMuIiG-VBUuwi6HVb-124" vertex="1">
          <mxGeometry x="300" width="60" height="56" as="geometry">
            <mxRectangle width="60" height="56" as="alternateBounds" />
          </mxGeometry>
        </mxCell>
        <mxCell id="FWrRMuIiG-VBUuwi6HVb-131" value="" style="shape=tableRow;horizontal=0;startSize=0;swimlaneHead=0;swimlaneBody=0;top=0;left=0;bottom=0;right=0;collapsible=0;dropTarget=0;fillColor=none;points=[[0,0.5],[1,0.5]];portConstraint=eastwest;dashed=1;strokeWidth=3;" parent="FWrRMuIiG-VBUuwi6HVb-109" vertex="1">
          <mxGeometry y="171" width="360" height="55" as="geometry" />
        </mxCell>
        <mxCell id="FWrRMuIiG-VBUuwi6HVb-132" value="19" style="shape=partialRectangle;html=1;whiteSpace=wrap;connectable=0;overflow=hidden;fillColor=none;top=0;left=0;bottom=0;right=0;pointerEvents=1;dashed=1;strokeWidth=3;" parent="FWrRMuIiG-VBUuwi6HVb-131" vertex="1">
          <mxGeometry width="60" height="55" as="geometry">
            <mxRectangle width="60" height="55" as="alternateBounds" />
          </mxGeometry>
        </mxCell>
        <mxCell id="FWrRMuIiG-VBUuwi6HVb-133" value="20" style="shape=partialRectangle;html=1;whiteSpace=wrap;connectable=0;overflow=hidden;fillColor=none;top=0;left=0;bottom=0;right=0;pointerEvents=1;dashed=1;strokeWidth=3;" parent="FWrRMuIiG-VBUuwi6HVb-131" vertex="1">
          <mxGeometry x="60" width="60" height="55" as="geometry">
            <mxRectangle width="60" height="55" as="alternateBounds" />
          </mxGeometry>
        </mxCell>
        <mxCell id="FWrRMuIiG-VBUuwi6HVb-134" value="21" style="shape=partialRectangle;html=1;whiteSpace=wrap;connectable=0;overflow=hidden;fillColor=none;top=0;left=0;bottom=0;right=0;pointerEvents=1;dashed=1;strokeWidth=3;" parent="FWrRMuIiG-VBUuwi6HVb-131" vertex="1">
          <mxGeometry x="120" width="60" height="55" as="geometry">
            <mxRectangle width="60" height="55" as="alternateBounds" />
          </mxGeometry>
        </mxCell>
        <mxCell id="FWrRMuIiG-VBUuwi6HVb-135" value="22" style="shape=partialRectangle;html=1;whiteSpace=wrap;connectable=0;overflow=hidden;fillColor=none;top=0;left=0;bottom=0;right=0;pointerEvents=1;dashed=1;strokeWidth=3;" parent="FWrRMuIiG-VBUuwi6HVb-131" vertex="1">
          <mxGeometry x="180" width="60" height="55" as="geometry">
            <mxRectangle width="60" height="55" as="alternateBounds" />
          </mxGeometry>
        </mxCell>
        <mxCell id="FWrRMuIiG-VBUuwi6HVb-136" value="23" style="shape=partialRectangle;html=1;whiteSpace=wrap;connectable=0;overflow=hidden;fillColor=#ffff88;top=0;left=0;bottom=0;right=0;pointerEvents=1;dashed=1;strokeWidth=3;strokeColor=#36393d;" parent="FWrRMuIiG-VBUuwi6HVb-131" vertex="1">
          <mxGeometry x="240" width="60" height="55" as="geometry">
            <mxRectangle width="60" height="55" as="alternateBounds" />
          </mxGeometry>
        </mxCell>
        <mxCell id="FWrRMuIiG-VBUuwi6HVb-137" value="24" style="shape=partialRectangle;html=1;whiteSpace=wrap;connectable=0;overflow=hidden;fillColor=#ffff88;top=0;left=0;bottom=0;right=0;pointerEvents=1;dashed=1;strokeWidth=3;strokeColor=#36393d;" parent="FWrRMuIiG-VBUuwi6HVb-131" vertex="1">
          <mxGeometry x="300" width="60" height="55" as="geometry">
            <mxRectangle width="60" height="55" as="alternateBounds" />
          </mxGeometry>
        </mxCell>
        <mxCell id="FWrRMuIiG-VBUuwi6HVb-138" value="" style="shape=tableRow;horizontal=0;startSize=0;swimlaneHead=0;swimlaneBody=0;top=0;left=0;bottom=0;right=0;collapsible=0;dropTarget=0;fillColor=none;points=[[0,0.5],[1,0.5]];portConstraint=eastwest;dashed=1;strokeWidth=3;" parent="FWrRMuIiG-VBUuwi6HVb-109" vertex="1">
          <mxGeometry y="226" width="360" height="56" as="geometry" />
        </mxCell>
        <mxCell id="FWrRMuIiG-VBUuwi6HVb-139" value="25" style="shape=partialRectangle;html=1;whiteSpace=wrap;connectable=0;overflow=hidden;fillColor=none;top=0;left=0;bottom=0;right=0;pointerEvents=1;dashed=1;strokeWidth=3;" parent="FWrRMuIiG-VBUuwi6HVb-138" vertex="1">
          <mxGeometry width="60" height="56" as="geometry">
            <mxRectangle width="60" height="56" as="alternateBounds" />
          </mxGeometry>
        </mxCell>
        <mxCell id="FWrRMuIiG-VBUuwi6HVb-140" value="26" style="shape=partialRectangle;html=1;whiteSpace=wrap;connectable=0;overflow=hidden;fillColor=none;top=0;left=0;bottom=0;right=0;pointerEvents=1;dashed=1;strokeWidth=3;" parent="FWrRMuIiG-VBUuwi6HVb-138" vertex="1">
          <mxGeometry x="60" width="60" height="56" as="geometry">
            <mxRectangle width="60" height="56" as="alternateBounds" />
          </mxGeometry>
        </mxCell>
        <mxCell id="FWrRMuIiG-VBUuwi6HVb-141" value="27" style="shape=partialRectangle;html=1;whiteSpace=wrap;connectable=0;overflow=hidden;fillColor=none;top=0;left=0;bottom=0;right=0;pointerEvents=1;dashed=1;strokeWidth=3;" parent="FWrRMuIiG-VBUuwi6HVb-138" vertex="1">
          <mxGeometry x="120" width="60" height="56" as="geometry">
            <mxRectangle width="60" height="56" as="alternateBounds" />
          </mxGeometry>
        </mxCell>
        <mxCell id="FWrRMuIiG-VBUuwi6HVb-142" value="28" style="shape=partialRectangle;html=1;whiteSpace=wrap;connectable=0;overflow=hidden;fillColor=none;top=0;left=0;bottom=0;right=0;pointerEvents=1;dashed=1;strokeWidth=3;" parent="FWrRMuIiG-VBUuwi6HVb-138" vertex="1">
          <mxGeometry x="180" width="60" height="56" as="geometry">
            <mxRectangle width="60" height="56" as="alternateBounds" />
          </mxGeometry>
        </mxCell>
        <mxCell id="FWrRMuIiG-VBUuwi6HVb-143" value="29" style="shape=partialRectangle;html=1;whiteSpace=wrap;connectable=0;overflow=hidden;fillColor=none;top=0;left=0;bottom=0;right=0;pointerEvents=1;dashed=1;strokeWidth=3;" parent="FWrRMuIiG-VBUuwi6HVb-138" vertex="1">
          <mxGeometry x="240" width="60" height="56" as="geometry">
            <mxRectangle width="60" height="56" as="alternateBounds" />
          </mxGeometry>
        </mxCell>
        <mxCell id="FWrRMuIiG-VBUuwi6HVb-144" value="30" style="shape=partialRectangle;html=1;whiteSpace=wrap;connectable=0;overflow=hidden;fillColor=none;top=0;left=0;bottom=0;right=0;pointerEvents=1;dashed=1;strokeWidth=3;" parent="FWrRMuIiG-VBUuwi6HVb-138" vertex="1">
          <mxGeometry x="300" width="60" height="56" as="geometry">
            <mxRectangle width="60" height="56" as="alternateBounds" />
          </mxGeometry>
        </mxCell>
        <mxCell id="FWrRMuIiG-VBUuwi6HVb-145" value="" style="shape=tableRow;horizontal=0;startSize=0;swimlaneHead=0;swimlaneBody=0;top=0;left=0;bottom=0;right=0;collapsible=0;dropTarget=0;fillColor=none;points=[[0,0.5],[1,0.5]];portConstraint=eastwest;dashed=1;strokeWidth=3;" parent="FWrRMuIiG-VBUuwi6HVb-109" vertex="1">
          <mxGeometry y="282" width="360" height="55" as="geometry" />
        </mxCell>
        <mxCell id="FWrRMuIiG-VBUuwi6HVb-146" value="31" style="shape=partialRectangle;html=1;whiteSpace=wrap;connectable=0;overflow=hidden;fillColor=none;top=0;left=0;bottom=0;right=0;pointerEvents=1;dashed=1;strokeWidth=3;" parent="FWrRMuIiG-VBUuwi6HVb-145" vertex="1">
          <mxGeometry width="60" height="55" as="geometry">
            <mxRectangle width="60" height="55" as="alternateBounds" />
          </mxGeometry>
        </mxCell>
        <mxCell id="FWrRMuIiG-VBUuwi6HVb-147" value="32" style="shape=partialRectangle;html=1;whiteSpace=wrap;connectable=0;overflow=hidden;fillColor=none;top=0;left=0;bottom=0;right=0;pointerEvents=1;dashed=1;strokeWidth=3;" parent="FWrRMuIiG-VBUuwi6HVb-145" vertex="1">
          <mxGeometry x="60" width="60" height="55" as="geometry">
            <mxRectangle width="60" height="55" as="alternateBounds" />
          </mxGeometry>
        </mxCell>
        <mxCell id="FWrRMuIiG-VBUuwi6HVb-148" value="33" style="shape=partialRectangle;html=1;whiteSpace=wrap;connectable=0;overflow=hidden;fillColor=none;top=0;left=0;bottom=0;right=0;pointerEvents=1;dashed=1;strokeWidth=3;" parent="FWrRMuIiG-VBUuwi6HVb-145" vertex="1">
          <mxGeometry x="120" width="60" height="55" as="geometry">
            <mxRectangle width="60" height="55" as="alternateBounds" />
          </mxGeometry>
        </mxCell>
        <mxCell id="FWrRMuIiG-VBUuwi6HVb-149" value="34" style="shape=partialRectangle;html=1;whiteSpace=wrap;connectable=0;overflow=hidden;fillColor=none;top=0;left=0;bottom=0;right=0;pointerEvents=1;dashed=1;strokeWidth=3;" parent="FWrRMuIiG-VBUuwi6HVb-145" vertex="1">
          <mxGeometry x="180" width="60" height="55" as="geometry">
            <mxRectangle width="60" height="55" as="alternateBounds" />
          </mxGeometry>
        </mxCell>
        <mxCell id="FWrRMuIiG-VBUuwi6HVb-150" value="35" style="shape=partialRectangle;html=1;whiteSpace=wrap;connectable=0;overflow=hidden;fillColor=none;top=0;left=0;bottom=0;right=0;pointerEvents=1;dashed=1;strokeWidth=3;" parent="FWrRMuIiG-VBUuwi6HVb-145" vertex="1">
          <mxGeometry x="240" width="60" height="55" as="geometry">
            <mxRectangle width="60" height="55" as="alternateBounds" />
          </mxGeometry>
        </mxCell>
        <mxCell id="FWrRMuIiG-VBUuwi6HVb-151" value="36" style="shape=partialRectangle;html=1;whiteSpace=wrap;connectable=0;overflow=hidden;fillColor=none;top=0;left=0;bottom=0;right=0;pointerEvents=1;dashed=1;strokeWidth=3;" parent="FWrRMuIiG-VBUuwi6HVb-145" vertex="1">
          <mxGeometry x="300" width="60" height="55" as="geometry">
            <mxRectangle width="60" height="55" as="alternateBounds" />
          </mxGeometry>
        </mxCell>
        <mxCell id="FWrRMuIiG-VBUuwi6HVb-154" value="" style="shape=mxgraph.signs.animals.bear_1;html=1;pointerEvents=1;fillColor=#000000;strokeColor=none;verticalLabelPosition=bottom;verticalAlign=top;align=center;sketch=0;strokeWidth=1;" parent="1" vertex="1">
          <mxGeometry x="840" y="650" width="50" height="40" as="geometry" />
        </mxCell>
        <mxCell id="FWrRMuIiG-VBUuwi6HVb-155" value="" style="shape=mxgraph.signs.animals.deer_1;html=1;pointerEvents=1;fillColor=#000000;strokeColor=none;verticalLabelPosition=bottom;verticalAlign=top;align=center;sketch=0;strokeWidth=1;" parent="1" vertex="1">
          <mxGeometry x="930" y="640" width="50" height="40" as="geometry" />
        </mxCell>
        <mxCell id="FWrRMuIiG-VBUuwi6HVb-156" value="" style="shape=mxgraph.signs.animals.dog_on_leash;html=1;pointerEvents=1;fillColor=#000000;strokeColor=none;verticalLabelPosition=bottom;verticalAlign=top;align=center;sketch=0;strokeWidth=1;" parent="1" vertex="1">
          <mxGeometry x="1020" y="708.5" width="50" height="40" as="geometry" />
        </mxCell>
        <mxCell id="FWrRMuIiG-VBUuwi6HVb-157" value="" style="ellipse;whiteSpace=wrap;html=1;aspect=fixed;strokeWidth=3;dashed=1;fillStyle=auto;opacity=40;perimeterSpacing=0;gradientColor=none;fillColor=none;" parent="1" vertex="1">
          <mxGeometry x="820" y="630" width="90" height="90" as="geometry" />
        </mxCell>
        <mxCell id="FWrRMuIiG-VBUuwi6HVb-158" value="" style="ellipse;whiteSpace=wrap;html=1;aspect=fixed;strokeWidth=3;dashed=1;fillStyle=auto;opacity=40;perimeterSpacing=0;gradientColor=none;fillColor=none;" parent="1" vertex="1">
          <mxGeometry x="885" y="580" width="140" height="140" as="geometry" />
        </mxCell>
        <mxCell id="FWrRMuIiG-VBUuwi6HVb-159" value="" style="ellipse;whiteSpace=wrap;html=1;aspect=fixed;strokeWidth=3;dashed=1;fillStyle=auto;opacity=40;perimeterSpacing=0;gradientColor=none;fillColor=none;" parent="1" vertex="1">
          <mxGeometry x="1000" y="683.5" width="90" height="90" as="geometry" />
        </mxCell>
        <mxCell id="FWrRMuIiG-VBUuwi6HVb-160" value="" style="shape=table;startSize=0;container=1;collapsible=0;childLayout=tableLayout;strokeWidth=1;" parent="1" vertex="1">
          <mxGeometry x="1200" y="570" width="360" height="337" as="geometry" />
        </mxCell>
        <mxCell id="FWrRMuIiG-VBUuwi6HVb-161" value="" style="shape=tableRow;horizontal=0;startSize=0;swimlaneHead=0;swimlaneBody=0;top=0;left=0;bottom=0;right=0;collapsible=0;dropTarget=0;fillColor=none;points=[[0,0.5],[1,0.5]];portConstraint=eastwest;dashed=1;strokeWidth=3;" parent="FWrRMuIiG-VBUuwi6HVb-160" vertex="1">
          <mxGeometry width="360" height="60" as="geometry" />
        </mxCell>
        <mxCell id="FWrRMuIiG-VBUuwi6HVb-162" value="1" style="shape=partialRectangle;html=1;whiteSpace=wrap;connectable=0;overflow=hidden;fillColor=none;top=0;left=0;bottom=0;right=0;pointerEvents=1;dashed=1;strokeWidth=3;" parent="FWrRMuIiG-VBUuwi6HVb-161" vertex="1">
          <mxGeometry width="60" height="60" as="geometry">
            <mxRectangle width="60" height="60" as="alternateBounds" />
          </mxGeometry>
        </mxCell>
        <mxCell id="FWrRMuIiG-VBUuwi6HVb-163" value="2" style="shape=partialRectangle;html=1;whiteSpace=wrap;connectable=0;overflow=hidden;fillColor=none;top=0;left=0;bottom=0;right=0;pointerEvents=1;dashed=1;strokeWidth=3;" parent="FWrRMuIiG-VBUuwi6HVb-161" vertex="1">
          <mxGeometry x="60" width="60" height="60" as="geometry">
            <mxRectangle width="60" height="60" as="alternateBounds" />
          </mxGeometry>
        </mxCell>
        <mxCell id="FWrRMuIiG-VBUuwi6HVb-164" value="3" style="shape=partialRectangle;html=1;whiteSpace=wrap;connectable=0;overflow=hidden;fillColor=#cdeb8b;top=0;left=0;bottom=0;right=0;pointerEvents=1;dashed=1;strokeWidth=3;strokeColor=#36393d;" parent="FWrRMuIiG-VBUuwi6HVb-161" vertex="1">
          <mxGeometry x="120" width="60" height="60" as="geometry">
            <mxRectangle width="60" height="60" as="alternateBounds" />
          </mxGeometry>
        </mxCell>
        <mxCell id="FWrRMuIiG-VBUuwi6HVb-165" value="4" style="shape=partialRectangle;html=1;whiteSpace=wrap;connectable=0;overflow=hidden;fillColor=#cdeb8b;top=0;left=0;bottom=0;right=0;pointerEvents=1;dashed=1;strokeWidth=3;strokeColor=#36393d;" parent="FWrRMuIiG-VBUuwi6HVb-161" vertex="1">
          <mxGeometry x="180" width="60" height="60" as="geometry">
            <mxRectangle width="60" height="60" as="alternateBounds" />
          </mxGeometry>
        </mxCell>
        <mxCell id="FWrRMuIiG-VBUuwi6HVb-166" value="5" style="shape=partialRectangle;html=1;whiteSpace=wrap;connectable=0;overflow=hidden;fillColor=#cdeb8b;top=0;left=0;bottom=0;right=0;pointerEvents=1;dashed=1;strokeWidth=3;strokeColor=#36393d;" parent="FWrRMuIiG-VBUuwi6HVb-161" vertex="1">
          <mxGeometry x="240" width="60" height="60" as="geometry">
            <mxRectangle width="60" height="60" as="alternateBounds" />
          </mxGeometry>
        </mxCell>
        <mxCell id="FWrRMuIiG-VBUuwi6HVb-167" value="6" style="shape=partialRectangle;html=1;whiteSpace=wrap;connectable=0;overflow=hidden;fillColor=none;top=0;left=0;bottom=0;right=0;pointerEvents=1;dashed=1;strokeWidth=3;" parent="FWrRMuIiG-VBUuwi6HVb-161" vertex="1">
          <mxGeometry x="300" width="60" height="60" as="geometry">
            <mxRectangle width="60" height="60" as="alternateBounds" />
          </mxGeometry>
        </mxCell>
        <mxCell id="FWrRMuIiG-VBUuwi6HVb-168" value="" style="shape=tableRow;horizontal=0;startSize=0;swimlaneHead=0;swimlaneBody=0;top=0;left=0;bottom=0;right=0;collapsible=0;dropTarget=0;fillColor=none;points=[[0,0.5],[1,0.5]];portConstraint=eastwest;dashed=1;strokeWidth=3;" parent="FWrRMuIiG-VBUuwi6HVb-160" vertex="1">
          <mxGeometry y="60" width="360" height="55" as="geometry" />
        </mxCell>
        <mxCell id="FWrRMuIiG-VBUuwi6HVb-169" value="7" style="shape=partialRectangle;html=1;whiteSpace=wrap;connectable=0;overflow=hidden;fillColor=none;top=0;left=0;bottom=0;right=0;pointerEvents=1;dashed=1;strokeWidth=3;" parent="FWrRMuIiG-VBUuwi6HVb-168" vertex="1">
          <mxGeometry width="60" height="55" as="geometry">
            <mxRectangle width="60" height="55" as="alternateBounds" />
          </mxGeometry>
        </mxCell>
        <mxCell id="FWrRMuIiG-VBUuwi6HVb-170" value="8" style="shape=partialRectangle;html=1;whiteSpace=wrap;connectable=0;overflow=hidden;fillColor=#ffcccc;top=0;left=0;bottom=0;right=0;pointerEvents=1;dashed=1;strokeWidth=3;strokeColor=#36393d;" parent="FWrRMuIiG-VBUuwi6HVb-168" vertex="1">
          <mxGeometry x="60" width="60" height="55" as="geometry">
            <mxRectangle width="60" height="55" as="alternateBounds" />
          </mxGeometry>
        </mxCell>
        <mxCell id="FWrRMuIiG-VBUuwi6HVb-171" value="9" style="shape=partialRectangle;html=1;whiteSpace=wrap;connectable=0;overflow=hidden;fillColor=#ffcc99;top=0;left=0;bottom=0;right=0;pointerEvents=1;dashed=1;strokeWidth=3;strokeColor=#36393d;" parent="FWrRMuIiG-VBUuwi6HVb-168" vertex="1">
          <mxGeometry x="120" width="60" height="55" as="geometry">
            <mxRectangle width="60" height="55" as="alternateBounds" />
          </mxGeometry>
        </mxCell>
        <mxCell id="FWrRMuIiG-VBUuwi6HVb-172" value="10" style="shape=partialRectangle;html=1;whiteSpace=wrap;connectable=0;overflow=hidden;fillColor=#cdeb8b;top=0;left=0;bottom=0;right=0;pointerEvents=1;dashed=1;strokeWidth=3;strokeColor=#36393d;" parent="FWrRMuIiG-VBUuwi6HVb-168" vertex="1">
          <mxGeometry x="180" width="60" height="55" as="geometry">
            <mxRectangle width="60" height="55" as="alternateBounds" />
          </mxGeometry>
        </mxCell>
        <mxCell id="FWrRMuIiG-VBUuwi6HVb-173" value="11" style="shape=partialRectangle;html=1;whiteSpace=wrap;connectable=0;overflow=hidden;fillColor=#cdeb8b;top=0;left=0;bottom=0;right=0;pointerEvents=1;dashed=1;strokeWidth=3;strokeColor=#36393d;" parent="FWrRMuIiG-VBUuwi6HVb-168" vertex="1">
          <mxGeometry x="240" width="60" height="55" as="geometry">
            <mxRectangle width="60" height="55" as="alternateBounds" />
          </mxGeometry>
        </mxCell>
        <mxCell id="FWrRMuIiG-VBUuwi6HVb-174" value="12" style="shape=partialRectangle;html=1;whiteSpace=wrap;connectable=0;overflow=hidden;fillColor=none;top=0;left=0;bottom=0;right=0;pointerEvents=1;dashed=1;strokeWidth=3;" parent="FWrRMuIiG-VBUuwi6HVb-168" vertex="1">
          <mxGeometry x="300" width="60" height="55" as="geometry">
            <mxRectangle width="60" height="55" as="alternateBounds" />
          </mxGeometry>
        </mxCell>
        <mxCell id="FWrRMuIiG-VBUuwi6HVb-175" value="" style="shape=tableRow;horizontal=0;startSize=0;swimlaneHead=0;swimlaneBody=0;top=0;left=0;bottom=0;right=0;collapsible=0;dropTarget=0;fillColor=none;points=[[0,0.5],[1,0.5]];portConstraint=eastwest;dashed=1;strokeWidth=3;" parent="FWrRMuIiG-VBUuwi6HVb-160" vertex="1">
          <mxGeometry y="115" width="360" height="56" as="geometry" />
        </mxCell>
        <mxCell id="FWrRMuIiG-VBUuwi6HVb-176" value="13" style="shape=partialRectangle;html=1;whiteSpace=wrap;connectable=0;overflow=hidden;fillColor=none;top=0;left=0;bottom=0;right=0;pointerEvents=1;dashed=1;strokeWidth=3;" parent="FWrRMuIiG-VBUuwi6HVb-175" vertex="1">
          <mxGeometry width="60" height="56" as="geometry">
            <mxRectangle width="60" height="56" as="alternateBounds" />
          </mxGeometry>
        </mxCell>
        <mxCell id="FWrRMuIiG-VBUuwi6HVb-177" value="14" style="shape=partialRectangle;html=1;whiteSpace=wrap;connectable=0;overflow=hidden;fillColor=#ffcccc;top=0;left=0;bottom=0;right=0;pointerEvents=1;dashed=1;strokeWidth=3;strokeColor=#36393d;" parent="FWrRMuIiG-VBUuwi6HVb-175" vertex="1">
          <mxGeometry x="60" width="60" height="56" as="geometry">
            <mxRectangle width="60" height="56" as="alternateBounds" />
          </mxGeometry>
        </mxCell>
        <mxCell id="FWrRMuIiG-VBUuwi6HVb-178" value="15" style="shape=partialRectangle;html=1;whiteSpace=wrap;connectable=0;overflow=hidden;fillColor=#ffcc99;top=0;left=0;bottom=0;right=0;pointerEvents=1;dashed=1;strokeWidth=3;strokeColor=#36393d;" parent="FWrRMuIiG-VBUuwi6HVb-175" vertex="1">
          <mxGeometry x="120" width="60" height="56" as="geometry">
            <mxRectangle width="60" height="56" as="alternateBounds" />
          </mxGeometry>
        </mxCell>
        <mxCell id="FWrRMuIiG-VBUuwi6HVb-179" value="16" style="shape=partialRectangle;html=1;whiteSpace=wrap;connectable=0;overflow=hidden;fillColor=#cdeb8b;top=0;left=0;bottom=0;right=0;pointerEvents=1;dashed=1;strokeWidth=3;strokeColor=#36393d;" parent="FWrRMuIiG-VBUuwi6HVb-175" vertex="1">
          <mxGeometry x="180" width="60" height="56" as="geometry">
            <mxRectangle width="60" height="56" as="alternateBounds" />
          </mxGeometry>
        </mxCell>
        <mxCell id="FWrRMuIiG-VBUuwi6HVb-180" value="17" style="shape=partialRectangle;html=1;whiteSpace=wrap;connectable=0;overflow=hidden;fillColor=#cce5ff;top=0;left=0;bottom=0;right=0;pointerEvents=1;dashed=1;strokeWidth=3;strokeColor=#36393d;" parent="FWrRMuIiG-VBUuwi6HVb-175" vertex="1">
          <mxGeometry x="240" width="60" height="56" as="geometry">
            <mxRectangle width="60" height="56" as="alternateBounds" />
          </mxGeometry>
        </mxCell>
        <mxCell id="FWrRMuIiG-VBUuwi6HVb-181" value="18" style="shape=partialRectangle;html=1;whiteSpace=wrap;connectable=0;overflow=hidden;fillColor=#ffff88;top=0;left=0;bottom=0;right=0;pointerEvents=1;dashed=1;strokeWidth=3;strokeColor=#36393d;" parent="FWrRMuIiG-VBUuwi6HVb-175" vertex="1">
          <mxGeometry x="300" width="60" height="56" as="geometry">
            <mxRectangle width="60" height="56" as="alternateBounds" />
          </mxGeometry>
        </mxCell>
        <mxCell id="FWrRMuIiG-VBUuwi6HVb-182" value="" style="shape=tableRow;horizontal=0;startSize=0;swimlaneHead=0;swimlaneBody=0;top=0;left=0;bottom=0;right=0;collapsible=0;dropTarget=0;fillColor=none;points=[[0,0.5],[1,0.5]];portConstraint=eastwest;dashed=1;strokeWidth=3;" parent="FWrRMuIiG-VBUuwi6HVb-160" vertex="1">
          <mxGeometry y="171" width="360" height="55" as="geometry" />
        </mxCell>
        <mxCell id="FWrRMuIiG-VBUuwi6HVb-183" value="19" style="shape=partialRectangle;html=1;whiteSpace=wrap;connectable=0;overflow=hidden;fillColor=none;top=0;left=0;bottom=0;right=0;pointerEvents=1;dashed=1;strokeWidth=3;" parent="FWrRMuIiG-VBUuwi6HVb-182" vertex="1">
          <mxGeometry width="60" height="55" as="geometry">
            <mxRectangle width="60" height="55" as="alternateBounds" />
          </mxGeometry>
        </mxCell>
        <mxCell id="FWrRMuIiG-VBUuwi6HVb-184" value="20" style="shape=partialRectangle;html=1;whiteSpace=wrap;connectable=0;overflow=hidden;fillColor=none;top=0;left=0;bottom=0;right=0;pointerEvents=1;dashed=1;strokeWidth=3;" parent="FWrRMuIiG-VBUuwi6HVb-182" vertex="1">
          <mxGeometry x="60" width="60" height="55" as="geometry">
            <mxRectangle width="60" height="55" as="alternateBounds" />
          </mxGeometry>
        </mxCell>
        <mxCell id="FWrRMuIiG-VBUuwi6HVb-185" value="21" style="shape=partialRectangle;html=1;whiteSpace=wrap;connectable=0;overflow=hidden;fillColor=none;top=0;left=0;bottom=0;right=0;pointerEvents=1;dashed=1;strokeWidth=3;" parent="FWrRMuIiG-VBUuwi6HVb-182" vertex="1">
          <mxGeometry x="120" width="60" height="55" as="geometry">
            <mxRectangle width="60" height="55" as="alternateBounds" />
          </mxGeometry>
        </mxCell>
        <mxCell id="FWrRMuIiG-VBUuwi6HVb-186" value="22" style="shape=partialRectangle;html=1;whiteSpace=wrap;connectable=0;overflow=hidden;fillColor=none;top=0;left=0;bottom=0;right=0;pointerEvents=1;dashed=1;strokeWidth=3;" parent="FWrRMuIiG-VBUuwi6HVb-182" vertex="1">
          <mxGeometry x="180" width="60" height="55" as="geometry">
            <mxRectangle width="60" height="55" as="alternateBounds" />
          </mxGeometry>
        </mxCell>
        <mxCell id="FWrRMuIiG-VBUuwi6HVb-187" value="23" style="shape=partialRectangle;html=1;whiteSpace=wrap;connectable=0;overflow=hidden;fillColor=#ffff88;top=0;left=0;bottom=0;right=0;pointerEvents=1;dashed=1;strokeWidth=3;strokeColor=#36393d;" parent="FWrRMuIiG-VBUuwi6HVb-182" vertex="1">
          <mxGeometry x="240" width="60" height="55" as="geometry">
            <mxRectangle width="60" height="55" as="alternateBounds" />
          </mxGeometry>
        </mxCell>
        <mxCell id="FWrRMuIiG-VBUuwi6HVb-188" value="24" style="shape=partialRectangle;html=1;whiteSpace=wrap;connectable=0;overflow=hidden;fillColor=#ffff88;top=0;left=0;bottom=0;right=0;pointerEvents=1;dashed=1;strokeWidth=3;strokeColor=#36393d;" parent="FWrRMuIiG-VBUuwi6HVb-182" vertex="1">
          <mxGeometry x="300" width="60" height="55" as="geometry">
            <mxRectangle width="60" height="55" as="alternateBounds" />
          </mxGeometry>
        </mxCell>
        <mxCell id="FWrRMuIiG-VBUuwi6HVb-189" value="" style="shape=tableRow;horizontal=0;startSize=0;swimlaneHead=0;swimlaneBody=0;top=0;left=0;bottom=0;right=0;collapsible=0;dropTarget=0;fillColor=none;points=[[0,0.5],[1,0.5]];portConstraint=eastwest;dashed=1;strokeWidth=3;" parent="FWrRMuIiG-VBUuwi6HVb-160" vertex="1">
          <mxGeometry y="226" width="360" height="56" as="geometry" />
        </mxCell>
        <mxCell id="FWrRMuIiG-VBUuwi6HVb-190" value="25" style="shape=partialRectangle;html=1;whiteSpace=wrap;connectable=0;overflow=hidden;fillColor=none;top=0;left=0;bottom=0;right=0;pointerEvents=1;dashed=1;strokeWidth=3;" parent="FWrRMuIiG-VBUuwi6HVb-189" vertex="1">
          <mxGeometry width="60" height="56" as="geometry">
            <mxRectangle width="60" height="56" as="alternateBounds" />
          </mxGeometry>
        </mxCell>
        <mxCell id="FWrRMuIiG-VBUuwi6HVb-191" value="26" style="shape=partialRectangle;html=1;whiteSpace=wrap;connectable=0;overflow=hidden;fillColor=none;top=0;left=0;bottom=0;right=0;pointerEvents=1;dashed=1;strokeWidth=3;" parent="FWrRMuIiG-VBUuwi6HVb-189" vertex="1">
          <mxGeometry x="60" width="60" height="56" as="geometry">
            <mxRectangle width="60" height="56" as="alternateBounds" />
          </mxGeometry>
        </mxCell>
        <mxCell id="FWrRMuIiG-VBUuwi6HVb-192" value="27" style="shape=partialRectangle;html=1;whiteSpace=wrap;connectable=0;overflow=hidden;fillColor=none;top=0;left=0;bottom=0;right=0;pointerEvents=1;dashed=1;strokeWidth=3;" parent="FWrRMuIiG-VBUuwi6HVb-189" vertex="1">
          <mxGeometry x="120" width="60" height="56" as="geometry">
            <mxRectangle width="60" height="56" as="alternateBounds" />
          </mxGeometry>
        </mxCell>
        <mxCell id="FWrRMuIiG-VBUuwi6HVb-193" value="28" style="shape=partialRectangle;html=1;whiteSpace=wrap;connectable=0;overflow=hidden;fillColor=none;top=0;left=0;bottom=0;right=0;pointerEvents=1;dashed=1;strokeWidth=3;" parent="FWrRMuIiG-VBUuwi6HVb-189" vertex="1">
          <mxGeometry x="180" width="60" height="56" as="geometry">
            <mxRectangle width="60" height="56" as="alternateBounds" />
          </mxGeometry>
        </mxCell>
        <mxCell id="FWrRMuIiG-VBUuwi6HVb-194" value="29" style="shape=partialRectangle;html=1;whiteSpace=wrap;connectable=0;overflow=hidden;fillColor=none;top=0;left=0;bottom=0;right=0;pointerEvents=1;dashed=1;strokeWidth=3;" parent="FWrRMuIiG-VBUuwi6HVb-189" vertex="1">
          <mxGeometry x="240" width="60" height="56" as="geometry">
            <mxRectangle width="60" height="56" as="alternateBounds" />
          </mxGeometry>
        </mxCell>
        <mxCell id="FWrRMuIiG-VBUuwi6HVb-195" value="30" style="shape=partialRectangle;html=1;whiteSpace=wrap;connectable=0;overflow=hidden;fillColor=none;top=0;left=0;bottom=0;right=0;pointerEvents=1;dashed=1;strokeWidth=3;" parent="FWrRMuIiG-VBUuwi6HVb-189" vertex="1">
          <mxGeometry x="300" width="60" height="56" as="geometry">
            <mxRectangle width="60" height="56" as="alternateBounds" />
          </mxGeometry>
        </mxCell>
        <mxCell id="FWrRMuIiG-VBUuwi6HVb-196" value="" style="shape=tableRow;horizontal=0;startSize=0;swimlaneHead=0;swimlaneBody=0;top=0;left=0;bottom=0;right=0;collapsible=0;dropTarget=0;fillColor=none;points=[[0,0.5],[1,0.5]];portConstraint=eastwest;dashed=1;strokeWidth=3;" parent="FWrRMuIiG-VBUuwi6HVb-160" vertex="1">
          <mxGeometry y="282" width="360" height="55" as="geometry" />
        </mxCell>
        <mxCell id="FWrRMuIiG-VBUuwi6HVb-197" value="31" style="shape=partialRectangle;html=1;whiteSpace=wrap;connectable=0;overflow=hidden;fillColor=none;top=0;left=0;bottom=0;right=0;pointerEvents=1;dashed=1;strokeWidth=3;" parent="FWrRMuIiG-VBUuwi6HVb-196" vertex="1">
          <mxGeometry width="60" height="55" as="geometry">
            <mxRectangle width="60" height="55" as="alternateBounds" />
          </mxGeometry>
        </mxCell>
        <mxCell id="FWrRMuIiG-VBUuwi6HVb-198" value="32" style="shape=partialRectangle;html=1;whiteSpace=wrap;connectable=0;overflow=hidden;fillColor=none;top=0;left=0;bottom=0;right=0;pointerEvents=1;dashed=1;strokeWidth=3;" parent="FWrRMuIiG-VBUuwi6HVb-196" vertex="1">
          <mxGeometry x="60" width="60" height="55" as="geometry">
            <mxRectangle width="60" height="55" as="alternateBounds" />
          </mxGeometry>
        </mxCell>
        <mxCell id="FWrRMuIiG-VBUuwi6HVb-199" value="33" style="shape=partialRectangle;html=1;whiteSpace=wrap;connectable=0;overflow=hidden;fillColor=none;top=0;left=0;bottom=0;right=0;pointerEvents=1;dashed=1;strokeWidth=3;" parent="FWrRMuIiG-VBUuwi6HVb-196" vertex="1">
          <mxGeometry x="120" width="60" height="55" as="geometry">
            <mxRectangle width="60" height="55" as="alternateBounds" />
          </mxGeometry>
        </mxCell>
        <mxCell id="FWrRMuIiG-VBUuwi6HVb-200" value="34" style="shape=partialRectangle;html=1;whiteSpace=wrap;connectable=0;overflow=hidden;fillColor=none;top=0;left=0;bottom=0;right=0;pointerEvents=1;dashed=1;strokeWidth=3;" parent="FWrRMuIiG-VBUuwi6HVb-196" vertex="1">
          <mxGeometry x="180" width="60" height="55" as="geometry">
            <mxRectangle width="60" height="55" as="alternateBounds" />
          </mxGeometry>
        </mxCell>
        <mxCell id="FWrRMuIiG-VBUuwi6HVb-201" value="35" style="shape=partialRectangle;html=1;whiteSpace=wrap;connectable=0;overflow=hidden;fillColor=none;top=0;left=0;bottom=0;right=0;pointerEvents=1;dashed=1;strokeWidth=3;" parent="FWrRMuIiG-VBUuwi6HVb-196" vertex="1">
          <mxGeometry x="240" width="60" height="55" as="geometry">
            <mxRectangle width="60" height="55" as="alternateBounds" />
          </mxGeometry>
        </mxCell>
        <mxCell id="FWrRMuIiG-VBUuwi6HVb-202" value="36" style="shape=partialRectangle;html=1;whiteSpace=wrap;connectable=0;overflow=hidden;fillColor=none;top=0;left=0;bottom=0;right=0;pointerEvents=1;dashed=1;strokeWidth=3;" parent="FWrRMuIiG-VBUuwi6HVb-196" vertex="1">
          <mxGeometry x="300" width="60" height="55" as="geometry">
            <mxRectangle width="60" height="55" as="alternateBounds" />
          </mxGeometry>
        </mxCell>
        <mxCell id="FWrRMuIiG-VBUuwi6HVb-203" value="" style="shape=mxgraph.signs.animals.bear_1;html=1;pointerEvents=1;fillColor=#000000;strokeColor=none;verticalLabelPosition=bottom;verticalAlign=top;align=center;sketch=0;strokeWidth=1;" parent="1" vertex="1">
          <mxGeometry x="1300" y="660" width="50" height="40" as="geometry" />
        </mxCell>
        <mxCell id="FWrRMuIiG-VBUuwi6HVb-204" value="" style="shape=mxgraph.signs.animals.deer_1;html=1;pointerEvents=1;fillColor=#000000;strokeColor=none;verticalLabelPosition=bottom;verticalAlign=top;align=center;sketch=0;strokeWidth=1;" parent="1" vertex="1">
          <mxGeometry x="1390" y="650" width="50" height="40" as="geometry" />
        </mxCell>
        <mxCell id="FWrRMuIiG-VBUuwi6HVb-205" value="" style="shape=mxgraph.signs.animals.dog_on_leash;html=1;pointerEvents=1;fillColor=#000000;strokeColor=none;verticalLabelPosition=bottom;verticalAlign=top;align=center;sketch=0;strokeWidth=1;" parent="1" vertex="1">
          <mxGeometry x="1480" y="718.5" width="50" height="40" as="geometry" />
        </mxCell>
        <mxCell id="FWrRMuIiG-VBUuwi6HVb-206" value="" style="ellipse;whiteSpace=wrap;html=1;aspect=fixed;strokeWidth=3;dashed=1;fillStyle=auto;opacity=40;perimeterSpacing=0;gradientColor=none;fillColor=none;" parent="1" vertex="1">
          <mxGeometry x="1280" y="640" width="90" height="90" as="geometry" />
        </mxCell>
        <mxCell id="FWrRMuIiG-VBUuwi6HVb-207" value="" style="ellipse;whiteSpace=wrap;html=1;aspect=fixed;strokeWidth=3;dashed=1;fillStyle=auto;opacity=40;perimeterSpacing=0;gradientColor=none;fillColor=none;" parent="1" vertex="1">
          <mxGeometry x="1345" y="590" width="140" height="140" as="geometry" />
        </mxCell>
        <mxCell id="FWrRMuIiG-VBUuwi6HVb-208" value="" style="ellipse;whiteSpace=wrap;html=1;aspect=fixed;strokeWidth=3;dashed=1;fillStyle=auto;opacity=40;perimeterSpacing=0;gradientColor=none;fillColor=none;" parent="1" vertex="1">
          <mxGeometry x="1460" y="693.5" width="90" height="90" as="geometry" />
        </mxCell>
        <mxCell id="FWrRMuIiG-VBUuwi6HVb-209" value="" style="verticalAlign=top;verticalLabelPosition=bottom;labelPosition=center;align=center;html=1;outlineConnect=0;fillColor=#ffcccc;strokeColor=#36393d;gradientDirection=north;strokeWidth=2;shape=mxgraph.networks.user_male;dashed=1;" parent="1" vertex="1">
          <mxGeometry x="1360" y="693.5" width="20" height="50" as="geometry" />
        </mxCell>
        <mxCell id="miaj4zXdVuBx5uiMbY_F-1" value="" style="shape=table;startSize=0;container=1;collapsible=0;childLayout=tableLayout;movable=0;resizable=0;rotatable=0;deletable=0;editable=0;connectable=0;" parent="1" vertex="1">
          <mxGeometry x="540" y="1417.5" width="300" height="300" as="geometry" />
        </mxCell>
        <mxCell id="miaj4zXdVuBx5uiMbY_F-2" value="" style="shape=tableRow;horizontal=0;startSize=0;swimlaneHead=0;swimlaneBody=0;top=0;left=0;bottom=0;right=0;collapsible=0;dropTarget=0;fillColor=none;points=[[0,0.5],[1,0.5]];portConstraint=eastwest;movable=0;resizable=0;rotatable=0;deletable=0;editable=0;connectable=0;" parent="miaj4zXdVuBx5uiMbY_F-1" vertex="1">
          <mxGeometry width="300" height="150" as="geometry" />
        </mxCell>
        <mxCell id="miaj4zXdVuBx5uiMbY_F-3" value="" style="shape=partialRectangle;html=1;whiteSpace=wrap;connectable=0;overflow=hidden;fillColor=none;top=0;left=0;bottom=0;right=0;pointerEvents=1;movable=0;resizable=0;rotatable=0;deletable=0;editable=0;" parent="miaj4zXdVuBx5uiMbY_F-2" vertex="1">
          <mxGeometry width="150" height="150" as="geometry">
            <mxRectangle width="150" height="150" as="alternateBounds" />
          </mxGeometry>
        </mxCell>
        <mxCell id="miaj4zXdVuBx5uiMbY_F-4" value="" style="shape=partialRectangle;html=1;whiteSpace=wrap;connectable=0;overflow=hidden;fillColor=none;top=0;left=0;bottom=0;right=0;pointerEvents=1;movable=0;resizable=0;rotatable=0;deletable=0;editable=0;" parent="miaj4zXdVuBx5uiMbY_F-2" vertex="1">
          <mxGeometry x="150" width="150" height="150" as="geometry">
            <mxRectangle width="150" height="150" as="alternateBounds" />
          </mxGeometry>
        </mxCell>
        <mxCell id="miaj4zXdVuBx5uiMbY_F-5" value="" style="shape=tableRow;horizontal=0;startSize=0;swimlaneHead=0;swimlaneBody=0;top=0;left=0;bottom=0;right=0;collapsible=0;dropTarget=0;fillColor=none;points=[[0,0.5],[1,0.5]];portConstraint=eastwest;movable=0;resizable=0;rotatable=0;deletable=0;editable=0;connectable=0;" parent="miaj4zXdVuBx5uiMbY_F-1" vertex="1">
          <mxGeometry y="150" width="300" height="150" as="geometry" />
        </mxCell>
        <mxCell id="miaj4zXdVuBx5uiMbY_F-6" value="" style="shape=partialRectangle;html=1;whiteSpace=wrap;connectable=0;overflow=hidden;fillColor=none;top=0;left=0;bottom=0;right=0;pointerEvents=1;movable=0;resizable=0;rotatable=0;deletable=0;editable=0;" parent="miaj4zXdVuBx5uiMbY_F-5" vertex="1">
          <mxGeometry width="150" height="150" as="geometry">
            <mxRectangle width="150" height="150" as="alternateBounds" />
          </mxGeometry>
        </mxCell>
        <mxCell id="miaj4zXdVuBx5uiMbY_F-7" value="" style="shape=partialRectangle;html=1;whiteSpace=wrap;connectable=0;overflow=hidden;fillColor=none;top=0;left=0;bottom=0;right=0;pointerEvents=1;movable=0;resizable=0;rotatable=0;deletable=0;editable=0;" parent="miaj4zXdVuBx5uiMbY_F-5" vertex="1">
          <mxGeometry x="150" width="150" height="150" as="geometry">
            <mxRectangle width="150" height="150" as="alternateBounds" />
          </mxGeometry>
        </mxCell>
        <mxCell id="miaj4zXdVuBx5uiMbY_F-12" value="" style="edgeStyle=orthogonalEdgeStyle;rounded=0;orthogonalLoop=1;jettySize=auto;html=1;fontSize=24;movable=0;resizable=0;rotatable=0;deletable=0;editable=0;connectable=0;" parent="1" source="miaj4zXdVuBx5uiMbY_F-9" target="miaj4zXdVuBx5uiMbY_F-11" edge="1">
          <mxGeometry relative="1" as="geometry" />
        </mxCell>
        <mxCell id="miaj4zXdVuBx5uiMbY_F-9" value="World" style="text;html=1;resizable=0;autosize=1;align=center;verticalAlign=middle;points=[];fillColor=none;strokeColor=none;rounded=0;fontSize=24;fontStyle=1;movable=0;rotatable=0;deletable=0;editable=0;connectable=0;" parent="1" vertex="1">
          <mxGeometry x="535" y="1730" width="90" height="40" as="geometry" />
        </mxCell>
        <mxCell id="miaj4zXdVuBx5uiMbY_F-10" value="Level" style="text;html=1;resizable=0;autosize=1;align=center;verticalAlign=middle;points=[];fillColor=none;strokeColor=none;rounded=0;fontSize=24;movable=0;rotatable=0;deletable=0;editable=0;connectable=0;" parent="1" vertex="1">
          <mxGeometry x="547.5" y="1427.5" width="80" height="40" as="geometry" />
        </mxCell>
        <mxCell id="miaj4zXdVuBx5uiMbY_F-11" value="主Level" style="text;html=1;resizable=0;autosize=1;align=center;verticalAlign=middle;points=[];fillColor=none;strokeColor=none;rounded=0;fontSize=20;movable=0;rotatable=0;deletable=0;editable=0;connectable=0;" parent="1" vertex="1">
          <mxGeometry x="687.5" y="1730" width="90" height="40" as="geometry" />
        </mxCell>
        <mxCell id="miaj4zXdVuBx5uiMbY_F-13" value="Level" style="text;html=1;resizable=0;autosize=1;align=center;verticalAlign=middle;points=[];fillColor=none;strokeColor=none;rounded=0;fontSize=24;movable=0;rotatable=0;deletable=0;editable=0;connectable=0;" parent="1" vertex="1">
          <mxGeometry x="760" y="1427.5" width="80" height="40" as="geometry" />
        </mxCell>
        <mxCell id="miaj4zXdVuBx5uiMbY_F-14" value="Level" style="text;html=1;resizable=0;autosize=1;align=center;verticalAlign=middle;points=[];fillColor=none;strokeColor=none;rounded=0;fontSize=24;movable=0;rotatable=0;deletable=0;editable=0;connectable=0;" parent="1" vertex="1">
          <mxGeometry x="545" y="1580" width="80" height="40" as="geometry" />
        </mxCell>
        <mxCell id="miaj4zXdVuBx5uiMbY_F-15" value="Level" style="text;html=1;resizable=0;autosize=1;align=center;verticalAlign=middle;points=[];fillColor=none;strokeColor=none;rounded=0;fontSize=24;movable=0;rotatable=0;deletable=0;editable=0;connectable=0;" parent="1" vertex="1">
          <mxGeometry x="692.5" y="1580" width="80" height="40" as="geometry" />
        </mxCell>
        <mxCell id="miaj4zXdVuBx5uiMbY_F-16" value="Actors" style="strokeWidth=2;html=1;shape=mxgraph.flowchart.multi-document;whiteSpace=wrap;fontSize=20;movable=0;resizable=0;rotatable=0;deletable=0;editable=0;connectable=0;" parent="1" vertex="1">
          <mxGeometry x="580" y="1487.5" width="88" height="60" as="geometry" />
        </mxCell>
        <mxCell id="miaj4zXdVuBx5uiMbY_F-21" value="" style="edgeStyle=orthogonalEdgeStyle;rounded=0;orthogonalLoop=1;jettySize=auto;html=1;fontSize=24;movable=0;resizable=0;rotatable=0;deletable=0;editable=0;connectable=0;" parent="1" source="miaj4zXdVuBx5uiMbY_F-18" target="miaj4zXdVuBx5uiMbY_F-19" edge="1">
          <mxGeometry relative="1" as="geometry" />
        </mxCell>
        <mxCell id="miaj4zXdVuBx5uiMbY_F-18" value="UEngine" style="text;html=1;resizable=0;autosize=1;align=center;verticalAlign=middle;points=[];fillColor=none;strokeColor=none;rounded=0;fontSize=34;fontStyle=1;movable=0;rotatable=0;deletable=0;editable=0;connectable=0;" parent="1" vertex="1">
          <mxGeometry x="102.5" y="1347.5" width="160" height="50" as="geometry" />
        </mxCell>
        <mxCell id="miaj4zXdVuBx5uiMbY_F-22" value="" style="edgeStyle=orthogonalEdgeStyle;rounded=0;orthogonalLoop=1;jettySize=auto;html=1;fontSize=24;movable=0;resizable=0;rotatable=0;deletable=0;editable=0;connectable=0;" parent="1" source="miaj4zXdVuBx5uiMbY_F-19" target="miaj4zXdVuBx5uiMbY_F-20" edge="1">
          <mxGeometry relative="1" as="geometry" />
        </mxCell>
        <mxCell id="miaj4zXdVuBx5uiMbY_F-19" value="UGameInstance" style="text;html=1;resizable=0;autosize=1;align=center;verticalAlign=middle;points=[];fillColor=none;strokeColor=none;rounded=0;fontSize=30;fontStyle=1;movable=0;rotatable=0;deletable=0;editable=0;connectable=0;" parent="1" vertex="1">
          <mxGeometry x="152.5" y="1437.5" width="250" height="50" as="geometry" />
        </mxCell>
        <mxCell id="miaj4zXdVuBx5uiMbY_F-23" value="" style="edgeStyle=orthogonalEdgeStyle;rounded=0;orthogonalLoop=1;jettySize=auto;html=1;fontSize=24;movable=0;resizable=0;rotatable=0;deletable=0;editable=0;connectable=0;" parent="1" source="miaj4zXdVuBx5uiMbY_F-20" target="miaj4zXdVuBx5uiMbY_F-8" edge="1">
          <mxGeometry relative="1" as="geometry" />
        </mxCell>
        <mxCell id="miaj4zXdVuBx5uiMbY_F-25" style="edgeStyle=orthogonalEdgeStyle;rounded=0;orthogonalLoop=1;jettySize=auto;html=1;entryX=0;entryY=0.5;entryDx=0;entryDy=0;fontSize=24;movable=0;resizable=0;rotatable=0;deletable=0;editable=0;connectable=0;" parent="1" source="miaj4zXdVuBx5uiMbY_F-20" target="miaj4zXdVuBx5uiMbY_F-24" edge="1">
          <mxGeometry relative="1" as="geometry" />
        </mxCell>
        <mxCell id="miaj4zXdVuBx5uiMbY_F-20" value="UWorldContext" style="text;html=1;resizable=0;autosize=1;align=center;verticalAlign=middle;points=[];fillColor=none;strokeColor=none;rounded=0;fontSize=26;fontStyle=1;movable=0;rotatable=0;deletable=0;editable=0;connectable=0;" parent="1" vertex="1">
          <mxGeometry x="230" y="1530" width="210" height="40" as="geometry" />
        </mxCell>
        <mxCell id="miaj4zXdVuBx5uiMbY_F-24" value="局外/局内" style="whiteSpace=wrap;html=1;fontSize=24;movable=0;resizable=0;rotatable=0;deletable=0;editable=0;connectable=0;" parent="1" vertex="1">
          <mxGeometry x="360" y="1810" width="120" height="60" as="geometry" />
        </mxCell>
        <mxCell id="miaj4zXdVuBx5uiMbY_F-26" value="主&lt;br style=&quot;font-size: 16px;&quot;&gt;导&lt;br style=&quot;font-size: 16px;&quot;&gt;world&lt;br style=&quot;font-size: 16px;&quot;&gt;切&lt;br style=&quot;font-size: 16px;&quot;&gt;换" style="text;html=1;resizable=0;autosize=1;align=center;verticalAlign=middle;points=[];fillColor=none;strokeColor=none;rounded=0;fontSize=16;rotation=0;flipV=0;movable=0;rotatable=0;deletable=0;editable=0;connectable=0;" parent="1" vertex="1">
          <mxGeometry x="270" y="1660" width="60" height="110" as="geometry" />
        </mxCell>
        <mxCell id="miaj4zXdVuBx5uiMbY_F-28" value="Actors" style="strokeWidth=2;html=1;shape=mxgraph.flowchart.multi-document;whiteSpace=wrap;fontSize=20;movable=0;resizable=0;rotatable=0;deletable=0;editable=0;connectable=0;" parent="1" vertex="1">
          <mxGeometry x="720" y="1487.5" width="88" height="60" as="geometry" />
        </mxCell>
        <mxCell id="miaj4zXdVuBx5uiMbY_F-29" value="Actors" style="strokeWidth=2;html=1;shape=mxgraph.flowchart.multi-document;whiteSpace=wrap;fontSize=20;movable=0;resizable=0;rotatable=0;deletable=0;editable=0;connectable=0;" parent="1" vertex="1">
          <mxGeometry x="586" y="1637.5" width="88" height="60" as="geometry" />
        </mxCell>
        <mxCell id="miaj4zXdVuBx5uiMbY_F-30" value="Actors" style="strokeWidth=2;html=1;shape=mxgraph.flowchart.multi-document;whiteSpace=wrap;fontSize=20;movable=0;resizable=0;rotatable=0;deletable=0;editable=0;connectable=0;" parent="1" vertex="1">
          <mxGeometry x="732" y="1637.5" width="88" height="60" as="geometry" />
        </mxCell>
        <mxCell id="miaj4zXdVuBx5uiMbY_F-31" value="Game&lt;br&gt;GameMode&lt;br&gt;GameState&lt;br&gt;" style="rounded=0;whiteSpace=wrap;html=1;fontSize=16;" parent="1" vertex="1">
          <mxGeometry x="330" y="2110" width="160" height="80" as="geometry" />
        </mxCell>
        <mxCell id="miaj4zXdVuBx5uiMbY_F-40" style="edgeStyle=orthogonalEdgeStyle;rounded=0;orthogonalLoop=1;jettySize=auto;html=1;exitX=0.5;exitY=0;exitDx=0;exitDy=0;entryX=0.5;entryY=1;entryDx=0;entryDy=0;fontSize=21;fontColor=#FF3333;" parent="1" source="miaj4zXdVuBx5uiMbY_F-32" target="miaj4zXdVuBx5uiMbY_F-31" edge="1">
          <mxGeometry relative="1" as="geometry" />
        </mxCell>
        <mxCell id="miaj4zXdVuBx5uiMbY_F-44" style="edgeStyle=orthogonalEdgeStyle;rounded=0;orthogonalLoop=1;jettySize=auto;html=1;exitX=0.5;exitY=1;exitDx=0;exitDy=0;entryX=0;entryY=0.5;entryDx=0;entryDy=0;fontSize=21;fontColor=#000000;" parent="1" source="miaj4zXdVuBx5uiMbY_F-32" target="miaj4zXdVuBx5uiMbY_F-34" edge="1">
          <mxGeometry relative="1" as="geometry" />
        </mxCell>
        <mxCell id="miaj4zXdVuBx5uiMbY_F-49" style="edgeStyle=orthogonalEdgeStyle;rounded=0;orthogonalLoop=1;jettySize=auto;html=1;exitX=0;exitY=0.5;exitDx=0;exitDy=0;entryX=0;entryY=0.5;entryDx=0;entryDy=0;fontSize=19;fontColor=#000000;" parent="1" source="miaj4zXdVuBx5uiMbY_F-32" target="miaj4zXdVuBx5uiMbY_F-36" edge="1">
          <mxGeometry relative="1" as="geometry">
            <Array as="points">
              <mxPoint x="80" y="2305" />
              <mxPoint x="80" y="2430" />
            </Array>
          </mxGeometry>
        </mxCell>
        <mxCell id="miaj4zXdVuBx5uiMbY_F-51" style="edgeStyle=orthogonalEdgeStyle;rounded=0;orthogonalLoop=1;jettySize=auto;html=1;fontSize=19;fontColor=#000000;" parent="1" source="miaj4zXdVuBx5uiMbY_F-32" edge="1">
          <mxGeometry relative="1" as="geometry">
            <mxPoint x="150" y="2590" as="targetPoint" />
            <Array as="points">
              <mxPoint x="80" y="2305" />
              <mxPoint x="80" y="2590" />
            </Array>
          </mxGeometry>
        </mxCell>
        <mxCell id="miaj4zXdVuBx5uiMbY_F-52" style="edgeStyle=orthogonalEdgeStyle;rounded=0;orthogonalLoop=1;jettySize=auto;html=1;fontSize=19;fontColor=#000000;entryX=0;entryY=0.75;entryDx=0;entryDy=0;" parent="1" source="miaj4zXdVuBx5uiMbY_F-32" target="miaj4zXdVuBx5uiMbY_F-37" edge="1">
          <mxGeometry relative="1" as="geometry">
            <mxPoint x="100" y="2530" as="targetPoint" />
            <Array as="points">
              <mxPoint x="80" y="2305" />
              <mxPoint x="80" y="2510" />
              <mxPoint x="196" y="2510" />
            </Array>
          </mxGeometry>
        </mxCell>
        <mxCell id="miaj4zXdVuBx5uiMbY_F-32" value="Player&lt;b&gt;&lt;font style=&quot;font-size: 20px;&quot; color=&quot;#ff3333&quot;&gt;C&lt;/font&gt;&lt;/b&gt;ontroller" style="rounded=0;whiteSpace=wrap;html=1;fontSize=16;" parent="1" vertex="1">
          <mxGeometry x="340" y="2270" width="140" height="70" as="geometry" />
        </mxCell>
        <mxCell id="miaj4zXdVuBx5uiMbY_F-45" style="edgeStyle=orthogonalEdgeStyle;rounded=0;orthogonalLoop=1;jettySize=auto;html=1;exitX=0.5;exitY=1;exitDx=0;exitDy=0;entryX=1;entryY=0.5;entryDx=0;entryDy=0;fontSize=21;fontColor=#000000;" parent="1" source="miaj4zXdVuBx5uiMbY_F-33" target="miaj4zXdVuBx5uiMbY_F-34" edge="1">
          <mxGeometry relative="1" as="geometry" />
        </mxCell>
        <mxCell id="miaj4zXdVuBx5uiMbY_F-33" value="AI&lt;b&gt;&lt;font color=&quot;#ff3333&quot; style=&quot;font-size: 20px;&quot;&gt;C&lt;/font&gt;&lt;/b&gt;ontroller" style="rounded=0;whiteSpace=wrap;html=1;fontSize=16;" parent="1" vertex="1">
          <mxGeometry x="668" y="2270" width="140" height="70" as="geometry" />
        </mxCell>
        <mxCell id="miaj4zXdVuBx5uiMbY_F-46" style="edgeStyle=orthogonalEdgeStyle;rounded=0;orthogonalLoop=1;jettySize=auto;html=1;fontSize=21;fontColor=#000000;" parent="1" source="miaj4zXdVuBx5uiMbY_F-34" target="miaj4zXdVuBx5uiMbY_F-35" edge="1">
          <mxGeometry relative="1" as="geometry" />
        </mxCell>
        <mxCell id="miaj4zXdVuBx5uiMbY_F-34" value="Pawn" style="rounded=0;whiteSpace=wrap;html=1;fontSize=20;fontColor=#000000;" parent="1" vertex="1">
          <mxGeometry x="512" y="2390" width="120" height="60" as="geometry" />
        </mxCell>
        <mxCell id="miaj4zXdVuBx5uiMbY_F-35" value="&lt;font style=&quot;font-size: 22px;&quot; color=&quot;#ff3333&quot;&gt;&lt;b&gt;C&lt;/b&gt;&lt;/font&gt;haracter" style="rounded=0;whiteSpace=wrap;html=1;fontSize=20;fontColor=#000000;" parent="1" vertex="1">
          <mxGeometry x="512" y="2490" width="120" height="60" as="geometry" />
        </mxCell>
        <mxCell id="miaj4zXdVuBx5uiMbY_F-36" value="HUD" style="rounded=0;whiteSpace=wrap;html=1;fontSize=22;fontColor=#000000;" parent="1" vertex="1">
          <mxGeometry x="150" y="2400" width="210" height="60" as="geometry" />
        </mxCell>
        <mxCell id="miaj4zXdVuBx5uiMbY_F-37" value="Input" style="rounded=0;whiteSpace=wrap;html=1;fontSize=22;fontColor=#000000;" parent="1" vertex="1">
          <mxGeometry x="150" y="2480" width="207.5" height="60" as="geometry" />
        </mxCell>
        <mxCell id="miaj4zXdVuBx5uiMbY_F-53" style="edgeStyle=orthogonalEdgeStyle;rounded=0;orthogonalLoop=1;jettySize=auto;html=1;exitX=0.5;exitY=1;exitDx=0;exitDy=0;entryX=0.5;entryY=0;entryDx=0;entryDy=0;fontSize=19;fontColor=#000000;" parent="1" source="miaj4zXdVuBx5uiMbY_F-38" target="miaj4zXdVuBx5uiMbY_F-39" edge="1">
          <mxGeometry relative="1" as="geometry" />
        </mxCell>
        <mxCell id="miaj4zXdVuBx5uiMbY_F-38" value="PlayerCameraManager" style="rounded=0;whiteSpace=wrap;html=1;fontSize=17;fontColor=#000000;" parent="1" vertex="1">
          <mxGeometry x="152.5" y="2560" width="210" height="60" as="geometry" />
        </mxCell>
        <mxCell id="miaj4zXdVuBx5uiMbY_F-39" value="&lt;font color=&quot;#ff3333&quot; style=&quot;font-size: 21px;&quot;&gt;&lt;b&gt;C&lt;/b&gt;&lt;/font&gt;amera" style="rounded=0;whiteSpace=wrap;html=1;fontSize=17;fontColor=#000000;" parent="1" vertex="1">
          <mxGeometry x="240" y="2660" width="210" height="60" as="geometry" />
        </mxCell>
        <mxCell id="miaj4zXdVuBx5uiMbY_F-41" value="Join" style="text;html=1;resizable=0;autosize=1;align=center;verticalAlign=middle;points=[];fillColor=none;strokeColor=none;rounded=0;fontSize=21;fontColor=#000000;" parent="1" vertex="1">
          <mxGeometry x="420" y="2210" width="60" height="40" as="geometry" />
        </mxCell>
        <mxCell id="miaj4zXdVuBx5uiMbY_F-47" value="Possess" style="text;html=1;resizable=0;autosize=1;align=center;verticalAlign=middle;points=[];fillColor=none;strokeColor=none;rounded=0;fontSize=19;fontColor=#000000;" parent="1" vertex="1">
          <mxGeometry x="632" y="2380" width="100" height="40" as="geometry" />
        </mxCell>
        <mxCell id="miaj4zXdVuBx5uiMbY_F-48" value="Possess" style="text;html=1;resizable=0;autosize=1;align=center;verticalAlign=middle;points=[];fillColor=none;strokeColor=none;rounded=0;fontSize=19;fontColor=#000000;" parent="1" vertex="1">
          <mxGeometry x="412" y="2380" width="100" height="40" as="geometry" />
        </mxCell>
        <mxCell id="miaj4zXdVuBx5uiMbY_F-54" value="Contains" style="text;html=1;resizable=0;autosize=1;align=center;verticalAlign=middle;points=[];fillColor=none;strokeColor=none;rounded=0;fontSize=19;fontColor=#000000;" parent="1" vertex="1">
          <mxGeometry x="120" y="2270" width="100" height="40" as="geometry" />
        </mxCell>
        <mxCell id="miaj4zXdVuBx5uiMbY_F-55" value="Control" style="text;html=1;resizable=0;autosize=1;align=center;verticalAlign=middle;points=[];fillColor=none;strokeColor=none;rounded=0;fontSize=19;fontColor=#000000;" parent="1" vertex="1">
          <mxGeometry x="370" y="2620" width="80" height="40" as="geometry" />
        </mxCell>
        <mxCell id="BqUVc0J6VslhK_62mCGV-1" value="" style="shape=table;startSize=0;container=1;collapsible=0;childLayout=tableLayout;strokeWidth=1;" vertex="1" parent="1">
          <mxGeometry x="1660" y="570" width="360" height="337" as="geometry" />
        </mxCell>
        <mxCell id="BqUVc0J6VslhK_62mCGV-2" value="" style="shape=tableRow;horizontal=0;startSize=0;swimlaneHead=0;swimlaneBody=0;top=0;left=0;bottom=0;right=0;collapsible=0;dropTarget=0;fillColor=none;points=[[0,0.5],[1,0.5]];portConstraint=eastwest;dashed=1;strokeWidth=3;" vertex="1" parent="BqUVc0J6VslhK_62mCGV-1">
          <mxGeometry width="360" height="60" as="geometry" />
        </mxCell>
        <mxCell id="BqUVc0J6VslhK_62mCGV-3" value="1" style="shape=partialRectangle;html=1;whiteSpace=wrap;connectable=0;overflow=hidden;fillColor=none;top=0;left=0;bottom=0;right=0;pointerEvents=1;dashed=1;strokeWidth=3;" vertex="1" parent="BqUVc0J6VslhK_62mCGV-2">
          <mxGeometry width="60" height="60" as="geometry">
            <mxRectangle width="60" height="60" as="alternateBounds" />
          </mxGeometry>
        </mxCell>
        <mxCell id="BqUVc0J6VslhK_62mCGV-4" value="2" style="shape=partialRectangle;html=1;whiteSpace=wrap;connectable=0;overflow=hidden;fillColor=none;top=0;left=0;bottom=0;right=0;pointerEvents=1;dashed=1;strokeWidth=3;" vertex="1" parent="BqUVc0J6VslhK_62mCGV-2">
          <mxGeometry x="60" width="60" height="60" as="geometry">
            <mxRectangle width="60" height="60" as="alternateBounds" />
          </mxGeometry>
        </mxCell>
        <mxCell id="BqUVc0J6VslhK_62mCGV-5" value="3" style="shape=partialRectangle;html=1;whiteSpace=wrap;connectable=0;overflow=hidden;fillColor=#cdeb8b;top=0;left=0;bottom=0;right=0;pointerEvents=1;dashed=1;strokeWidth=3;strokeColor=#36393d;" vertex="1" parent="BqUVc0J6VslhK_62mCGV-2">
          <mxGeometry x="120" width="60" height="60" as="geometry">
            <mxRectangle width="60" height="60" as="alternateBounds" />
          </mxGeometry>
        </mxCell>
        <mxCell id="BqUVc0J6VslhK_62mCGV-6" value="4" style="shape=partialRectangle;html=1;whiteSpace=wrap;connectable=0;overflow=hidden;fillColor=#cdeb8b;top=0;left=0;bottom=0;right=0;pointerEvents=1;dashed=1;strokeWidth=3;strokeColor=#36393d;" vertex="1" parent="BqUVc0J6VslhK_62mCGV-2">
          <mxGeometry x="180" width="60" height="60" as="geometry">
            <mxRectangle width="60" height="60" as="alternateBounds" />
          </mxGeometry>
        </mxCell>
        <mxCell id="BqUVc0J6VslhK_62mCGV-7" value="5" style="shape=partialRectangle;html=1;whiteSpace=wrap;connectable=0;overflow=hidden;fillColor=#cdeb8b;top=0;left=0;bottom=0;right=0;pointerEvents=1;dashed=1;strokeWidth=3;strokeColor=#36393d;" vertex="1" parent="BqUVc0J6VslhK_62mCGV-2">
          <mxGeometry x="240" width="60" height="60" as="geometry">
            <mxRectangle width="60" height="60" as="alternateBounds" />
          </mxGeometry>
        </mxCell>
        <mxCell id="BqUVc0J6VslhK_62mCGV-8" value="6" style="shape=partialRectangle;html=1;whiteSpace=wrap;connectable=0;overflow=hidden;fillColor=none;top=0;left=0;bottom=0;right=0;pointerEvents=1;dashed=1;strokeWidth=3;" vertex="1" parent="BqUVc0J6VslhK_62mCGV-2">
          <mxGeometry x="300" width="60" height="60" as="geometry">
            <mxRectangle width="60" height="60" as="alternateBounds" />
          </mxGeometry>
        </mxCell>
        <mxCell id="BqUVc0J6VslhK_62mCGV-9" value="" style="shape=tableRow;horizontal=0;startSize=0;swimlaneHead=0;swimlaneBody=0;top=0;left=0;bottom=0;right=0;collapsible=0;dropTarget=0;fillColor=none;points=[[0,0.5],[1,0.5]];portConstraint=eastwest;dashed=1;strokeWidth=3;" vertex="1" parent="BqUVc0J6VslhK_62mCGV-1">
          <mxGeometry y="60" width="360" height="55" as="geometry" />
        </mxCell>
        <mxCell id="BqUVc0J6VslhK_62mCGV-10" value="7" style="shape=partialRectangle;html=1;whiteSpace=wrap;connectable=0;overflow=hidden;fillColor=none;top=0;left=0;bottom=0;right=0;pointerEvents=1;dashed=1;strokeWidth=3;" vertex="1" parent="BqUVc0J6VslhK_62mCGV-9">
          <mxGeometry width="60" height="55" as="geometry">
            <mxRectangle width="60" height="55" as="alternateBounds" />
          </mxGeometry>
        </mxCell>
        <mxCell id="BqUVc0J6VslhK_62mCGV-11" value="8" style="shape=partialRectangle;html=1;whiteSpace=wrap;connectable=0;overflow=hidden;fillColor=#ffcccc;top=0;left=0;bottom=0;right=0;pointerEvents=1;dashed=1;strokeWidth=3;strokeColor=#36393d;" vertex="1" parent="BqUVc0J6VslhK_62mCGV-9">
          <mxGeometry x="60" width="60" height="55" as="geometry">
            <mxRectangle width="60" height="55" as="alternateBounds" />
          </mxGeometry>
        </mxCell>
        <mxCell id="BqUVc0J6VslhK_62mCGV-12" value="9" style="shape=partialRectangle;html=1;whiteSpace=wrap;connectable=0;overflow=hidden;fillColor=#ffcc99;top=0;left=0;bottom=0;right=0;pointerEvents=1;dashed=1;strokeWidth=3;strokeColor=#36393d;" vertex="1" parent="BqUVc0J6VslhK_62mCGV-9">
          <mxGeometry x="120" width="60" height="55" as="geometry">
            <mxRectangle width="60" height="55" as="alternateBounds" />
          </mxGeometry>
        </mxCell>
        <mxCell id="BqUVc0J6VslhK_62mCGV-13" value="10" style="shape=partialRectangle;html=1;whiteSpace=wrap;connectable=0;overflow=hidden;fillColor=#cdeb8b;top=0;left=0;bottom=0;right=0;pointerEvents=1;dashed=1;strokeWidth=3;strokeColor=#36393d;" vertex="1" parent="BqUVc0J6VslhK_62mCGV-9">
          <mxGeometry x="180" width="60" height="55" as="geometry">
            <mxRectangle width="60" height="55" as="alternateBounds" />
          </mxGeometry>
        </mxCell>
        <mxCell id="BqUVc0J6VslhK_62mCGV-14" value="11" style="shape=partialRectangle;html=1;whiteSpace=wrap;connectable=0;overflow=hidden;fillColor=#cdeb8b;top=0;left=0;bottom=0;right=0;pointerEvents=1;dashed=1;strokeWidth=3;strokeColor=#36393d;" vertex="1" parent="BqUVc0J6VslhK_62mCGV-9">
          <mxGeometry x="240" width="60" height="55" as="geometry">
            <mxRectangle width="60" height="55" as="alternateBounds" />
          </mxGeometry>
        </mxCell>
        <mxCell id="BqUVc0J6VslhK_62mCGV-15" value="12" style="shape=partialRectangle;html=1;whiteSpace=wrap;connectable=0;overflow=hidden;fillColor=none;top=0;left=0;bottom=0;right=0;pointerEvents=1;dashed=1;strokeWidth=3;" vertex="1" parent="BqUVc0J6VslhK_62mCGV-9">
          <mxGeometry x="300" width="60" height="55" as="geometry">
            <mxRectangle width="60" height="55" as="alternateBounds" />
          </mxGeometry>
        </mxCell>
        <mxCell id="BqUVc0J6VslhK_62mCGV-16" value="" style="shape=tableRow;horizontal=0;startSize=0;swimlaneHead=0;swimlaneBody=0;top=0;left=0;bottom=0;right=0;collapsible=0;dropTarget=0;fillColor=none;points=[[0,0.5],[1,0.5]];portConstraint=eastwest;dashed=1;strokeWidth=3;" vertex="1" parent="BqUVc0J6VslhK_62mCGV-1">
          <mxGeometry y="115" width="360" height="56" as="geometry" />
        </mxCell>
        <mxCell id="BqUVc0J6VslhK_62mCGV-17" value="13" style="shape=partialRectangle;html=1;whiteSpace=wrap;connectable=0;overflow=hidden;fillColor=none;top=0;left=0;bottom=0;right=0;pointerEvents=1;dashed=1;strokeWidth=3;" vertex="1" parent="BqUVc0J6VslhK_62mCGV-16">
          <mxGeometry width="60" height="56" as="geometry">
            <mxRectangle width="60" height="56" as="alternateBounds" />
          </mxGeometry>
        </mxCell>
        <mxCell id="BqUVc0J6VslhK_62mCGV-18" value="14" style="shape=partialRectangle;html=1;whiteSpace=wrap;connectable=0;overflow=hidden;fillColor=#ffcccc;top=0;left=0;bottom=0;right=0;pointerEvents=1;dashed=1;strokeWidth=3;strokeColor=#36393d;" vertex="1" parent="BqUVc0J6VslhK_62mCGV-16">
          <mxGeometry x="60" width="60" height="56" as="geometry">
            <mxRectangle width="60" height="56" as="alternateBounds" />
          </mxGeometry>
        </mxCell>
        <mxCell id="BqUVc0J6VslhK_62mCGV-19" value="15" style="shape=partialRectangle;html=1;whiteSpace=wrap;connectable=0;overflow=hidden;fillColor=#ffcc99;top=0;left=0;bottom=0;right=0;pointerEvents=1;dashed=1;strokeWidth=3;strokeColor=#36393d;" vertex="1" parent="BqUVc0J6VslhK_62mCGV-16">
          <mxGeometry x="120" width="60" height="56" as="geometry">
            <mxRectangle width="60" height="56" as="alternateBounds" />
          </mxGeometry>
        </mxCell>
        <mxCell id="BqUVc0J6VslhK_62mCGV-20" value="16" style="shape=partialRectangle;html=1;whiteSpace=wrap;connectable=0;overflow=hidden;fillColor=#cdeb8b;top=0;left=0;bottom=0;right=0;pointerEvents=1;dashed=1;strokeWidth=3;strokeColor=#36393d;" vertex="1" parent="BqUVc0J6VslhK_62mCGV-16">
          <mxGeometry x="180" width="60" height="56" as="geometry">
            <mxRectangle width="60" height="56" as="alternateBounds" />
          </mxGeometry>
        </mxCell>
        <mxCell id="BqUVc0J6VslhK_62mCGV-21" value="17" style="shape=partialRectangle;html=1;whiteSpace=wrap;connectable=0;overflow=hidden;fillColor=#cce5ff;top=0;left=0;bottom=0;right=0;pointerEvents=1;dashed=1;strokeWidth=3;strokeColor=#36393d;" vertex="1" parent="BqUVc0J6VslhK_62mCGV-16">
          <mxGeometry x="240" width="60" height="56" as="geometry">
            <mxRectangle width="60" height="56" as="alternateBounds" />
          </mxGeometry>
        </mxCell>
        <mxCell id="BqUVc0J6VslhK_62mCGV-22" value="18" style="shape=partialRectangle;html=1;whiteSpace=wrap;connectable=0;overflow=hidden;fillColor=#ffff88;top=0;left=0;bottom=0;right=0;pointerEvents=1;dashed=1;strokeWidth=3;strokeColor=#36393d;" vertex="1" parent="BqUVc0J6VslhK_62mCGV-16">
          <mxGeometry x="300" width="60" height="56" as="geometry">
            <mxRectangle width="60" height="56" as="alternateBounds" />
          </mxGeometry>
        </mxCell>
        <mxCell id="BqUVc0J6VslhK_62mCGV-23" value="" style="shape=tableRow;horizontal=0;startSize=0;swimlaneHead=0;swimlaneBody=0;top=0;left=0;bottom=0;right=0;collapsible=0;dropTarget=0;fillColor=none;points=[[0,0.5],[1,0.5]];portConstraint=eastwest;dashed=1;strokeWidth=3;" vertex="1" parent="BqUVc0J6VslhK_62mCGV-1">
          <mxGeometry y="171" width="360" height="55" as="geometry" />
        </mxCell>
        <mxCell id="BqUVc0J6VslhK_62mCGV-24" value="19" style="shape=partialRectangle;html=1;whiteSpace=wrap;connectable=0;overflow=hidden;fillColor=none;top=0;left=0;bottom=0;right=0;pointerEvents=1;dashed=1;strokeWidth=3;" vertex="1" parent="BqUVc0J6VslhK_62mCGV-23">
          <mxGeometry width="60" height="55" as="geometry">
            <mxRectangle width="60" height="55" as="alternateBounds" />
          </mxGeometry>
        </mxCell>
        <mxCell id="BqUVc0J6VslhK_62mCGV-25" value="20" style="shape=partialRectangle;html=1;whiteSpace=wrap;connectable=0;overflow=hidden;fillColor=none;top=0;left=0;bottom=0;right=0;pointerEvents=1;dashed=1;strokeWidth=3;" vertex="1" parent="BqUVc0J6VslhK_62mCGV-23">
          <mxGeometry x="60" width="60" height="55" as="geometry">
            <mxRectangle width="60" height="55" as="alternateBounds" />
          </mxGeometry>
        </mxCell>
        <mxCell id="BqUVc0J6VslhK_62mCGV-26" value="21" style="shape=partialRectangle;html=1;whiteSpace=wrap;connectable=0;overflow=hidden;fillColor=none;top=0;left=0;bottom=0;right=0;pointerEvents=1;dashed=1;strokeWidth=3;" vertex="1" parent="BqUVc0J6VslhK_62mCGV-23">
          <mxGeometry x="120" width="60" height="55" as="geometry">
            <mxRectangle width="60" height="55" as="alternateBounds" />
          </mxGeometry>
        </mxCell>
        <mxCell id="BqUVc0J6VslhK_62mCGV-27" value="22" style="shape=partialRectangle;html=1;whiteSpace=wrap;connectable=0;overflow=hidden;fillColor=none;top=0;left=0;bottom=0;right=0;pointerEvents=1;dashed=1;strokeWidth=3;" vertex="1" parent="BqUVc0J6VslhK_62mCGV-23">
          <mxGeometry x="180" width="60" height="55" as="geometry">
            <mxRectangle width="60" height="55" as="alternateBounds" />
          </mxGeometry>
        </mxCell>
        <mxCell id="BqUVc0J6VslhK_62mCGV-28" value="23" style="shape=partialRectangle;html=1;whiteSpace=wrap;connectable=0;overflow=hidden;fillColor=#ffff88;top=0;left=0;bottom=0;right=0;pointerEvents=1;dashed=1;strokeWidth=3;strokeColor=#36393d;" vertex="1" parent="BqUVc0J6VslhK_62mCGV-23">
          <mxGeometry x="240" width="60" height="55" as="geometry">
            <mxRectangle width="60" height="55" as="alternateBounds" />
          </mxGeometry>
        </mxCell>
        <mxCell id="BqUVc0J6VslhK_62mCGV-29" value="24" style="shape=partialRectangle;html=1;whiteSpace=wrap;connectable=0;overflow=hidden;fillColor=#ffff88;top=0;left=0;bottom=0;right=0;pointerEvents=1;dashed=1;strokeWidth=3;strokeColor=#36393d;" vertex="1" parent="BqUVc0J6VslhK_62mCGV-23">
          <mxGeometry x="300" width="60" height="55" as="geometry">
            <mxRectangle width="60" height="55" as="alternateBounds" />
          </mxGeometry>
        </mxCell>
        <mxCell id="BqUVc0J6VslhK_62mCGV-30" value="" style="shape=tableRow;horizontal=0;startSize=0;swimlaneHead=0;swimlaneBody=0;top=0;left=0;bottom=0;right=0;collapsible=0;dropTarget=0;fillColor=none;points=[[0,0.5],[1,0.5]];portConstraint=eastwest;dashed=1;strokeWidth=3;" vertex="1" parent="BqUVc0J6VslhK_62mCGV-1">
          <mxGeometry y="226" width="360" height="56" as="geometry" />
        </mxCell>
        <mxCell id="BqUVc0J6VslhK_62mCGV-31" value="25" style="shape=partialRectangle;html=1;whiteSpace=wrap;connectable=0;overflow=hidden;fillColor=none;top=0;left=0;bottom=0;right=0;pointerEvents=1;dashed=1;strokeWidth=3;" vertex="1" parent="BqUVc0J6VslhK_62mCGV-30">
          <mxGeometry width="60" height="56" as="geometry">
            <mxRectangle width="60" height="56" as="alternateBounds" />
          </mxGeometry>
        </mxCell>
        <mxCell id="BqUVc0J6VslhK_62mCGV-32" value="26" style="shape=partialRectangle;html=1;whiteSpace=wrap;connectable=0;overflow=hidden;fillColor=none;top=0;left=0;bottom=0;right=0;pointerEvents=1;dashed=1;strokeWidth=3;" vertex="1" parent="BqUVc0J6VslhK_62mCGV-30">
          <mxGeometry x="60" width="60" height="56" as="geometry">
            <mxRectangle width="60" height="56" as="alternateBounds" />
          </mxGeometry>
        </mxCell>
        <mxCell id="BqUVc0J6VslhK_62mCGV-33" value="27" style="shape=partialRectangle;html=1;whiteSpace=wrap;connectable=0;overflow=hidden;fillColor=none;top=0;left=0;bottom=0;right=0;pointerEvents=1;dashed=1;strokeWidth=3;" vertex="1" parent="BqUVc0J6VslhK_62mCGV-30">
          <mxGeometry x="120" width="60" height="56" as="geometry">
            <mxRectangle width="60" height="56" as="alternateBounds" />
          </mxGeometry>
        </mxCell>
        <mxCell id="BqUVc0J6VslhK_62mCGV-34" value="28" style="shape=partialRectangle;html=1;whiteSpace=wrap;connectable=0;overflow=hidden;fillColor=none;top=0;left=0;bottom=0;right=0;pointerEvents=1;dashed=1;strokeWidth=3;" vertex="1" parent="BqUVc0J6VslhK_62mCGV-30">
          <mxGeometry x="180" width="60" height="56" as="geometry">
            <mxRectangle width="60" height="56" as="alternateBounds" />
          </mxGeometry>
        </mxCell>
        <mxCell id="BqUVc0J6VslhK_62mCGV-35" value="29" style="shape=partialRectangle;html=1;whiteSpace=wrap;connectable=0;overflow=hidden;fillColor=none;top=0;left=0;bottom=0;right=0;pointerEvents=1;dashed=1;strokeWidth=3;" vertex="1" parent="BqUVc0J6VslhK_62mCGV-30">
          <mxGeometry x="240" width="60" height="56" as="geometry">
            <mxRectangle width="60" height="56" as="alternateBounds" />
          </mxGeometry>
        </mxCell>
        <mxCell id="BqUVc0J6VslhK_62mCGV-36" value="30" style="shape=partialRectangle;html=1;whiteSpace=wrap;connectable=0;overflow=hidden;fillColor=none;top=0;left=0;bottom=0;right=0;pointerEvents=1;dashed=1;strokeWidth=3;" vertex="1" parent="BqUVc0J6VslhK_62mCGV-30">
          <mxGeometry x="300" width="60" height="56" as="geometry">
            <mxRectangle width="60" height="56" as="alternateBounds" />
          </mxGeometry>
        </mxCell>
        <mxCell id="BqUVc0J6VslhK_62mCGV-37" value="" style="shape=tableRow;horizontal=0;startSize=0;swimlaneHead=0;swimlaneBody=0;top=0;left=0;bottom=0;right=0;collapsible=0;dropTarget=0;fillColor=none;points=[[0,0.5],[1,0.5]];portConstraint=eastwest;dashed=1;strokeWidth=3;" vertex="1" parent="BqUVc0J6VslhK_62mCGV-1">
          <mxGeometry y="282" width="360" height="55" as="geometry" />
        </mxCell>
        <mxCell id="BqUVc0J6VslhK_62mCGV-38" value="31" style="shape=partialRectangle;html=1;whiteSpace=wrap;connectable=0;overflow=hidden;fillColor=none;top=0;left=0;bottom=0;right=0;pointerEvents=1;dashed=1;strokeWidth=3;" vertex="1" parent="BqUVc0J6VslhK_62mCGV-37">
          <mxGeometry width="60" height="55" as="geometry">
            <mxRectangle width="60" height="55" as="alternateBounds" />
          </mxGeometry>
        </mxCell>
        <mxCell id="BqUVc0J6VslhK_62mCGV-39" value="32" style="shape=partialRectangle;html=1;whiteSpace=wrap;connectable=0;overflow=hidden;fillColor=none;top=0;left=0;bottom=0;right=0;pointerEvents=1;dashed=1;strokeWidth=3;" vertex="1" parent="BqUVc0J6VslhK_62mCGV-37">
          <mxGeometry x="60" width="60" height="55" as="geometry">
            <mxRectangle width="60" height="55" as="alternateBounds" />
          </mxGeometry>
        </mxCell>
        <mxCell id="BqUVc0J6VslhK_62mCGV-40" value="33" style="shape=partialRectangle;html=1;whiteSpace=wrap;connectable=0;overflow=hidden;fillColor=none;top=0;left=0;bottom=0;right=0;pointerEvents=1;dashed=1;strokeWidth=3;" vertex="1" parent="BqUVc0J6VslhK_62mCGV-37">
          <mxGeometry x="120" width="60" height="55" as="geometry">
            <mxRectangle width="60" height="55" as="alternateBounds" />
          </mxGeometry>
        </mxCell>
        <mxCell id="BqUVc0J6VslhK_62mCGV-41" value="34" style="shape=partialRectangle;html=1;whiteSpace=wrap;connectable=0;overflow=hidden;fillColor=none;top=0;left=0;bottom=0;right=0;pointerEvents=1;dashed=1;strokeWidth=3;" vertex="1" parent="BqUVc0J6VslhK_62mCGV-37">
          <mxGeometry x="180" width="60" height="55" as="geometry">
            <mxRectangle width="60" height="55" as="alternateBounds" />
          </mxGeometry>
        </mxCell>
        <mxCell id="BqUVc0J6VslhK_62mCGV-42" value="35" style="shape=partialRectangle;html=1;whiteSpace=wrap;connectable=0;overflow=hidden;fillColor=none;top=0;left=0;bottom=0;right=0;pointerEvents=1;dashed=1;strokeWidth=3;" vertex="1" parent="BqUVc0J6VslhK_62mCGV-37">
          <mxGeometry x="240" width="60" height="55" as="geometry">
            <mxRectangle width="60" height="55" as="alternateBounds" />
          </mxGeometry>
        </mxCell>
        <mxCell id="BqUVc0J6VslhK_62mCGV-43" value="36" style="shape=partialRectangle;html=1;whiteSpace=wrap;connectable=0;overflow=hidden;fillColor=none;top=0;left=0;bottom=0;right=0;pointerEvents=1;dashed=1;strokeWidth=3;" vertex="1" parent="BqUVc0J6VslhK_62mCGV-37">
          <mxGeometry x="300" width="60" height="55" as="geometry">
            <mxRectangle width="60" height="55" as="alternateBounds" />
          </mxGeometry>
        </mxCell>
        <mxCell id="BqUVc0J6VslhK_62mCGV-44" value="" style="shape=mxgraph.signs.animals.bear_1;html=1;pointerEvents=1;fillColor=#000000;strokeColor=none;verticalLabelPosition=bottom;verticalAlign=top;align=center;sketch=0;strokeWidth=1;" vertex="1" parent="1">
          <mxGeometry x="1760" y="660" width="50" height="40" as="geometry" />
        </mxCell>
        <mxCell id="BqUVc0J6VslhK_62mCGV-45" value="" style="shape=mxgraph.signs.animals.deer_1;html=1;pointerEvents=1;fillColor=#000000;strokeColor=none;verticalLabelPosition=bottom;verticalAlign=top;align=center;sketch=0;strokeWidth=1;" vertex="1" parent="1">
          <mxGeometry x="1850" y="650" width="50" height="40" as="geometry" />
        </mxCell>
        <mxCell id="BqUVc0J6VslhK_62mCGV-46" value="" style="shape=mxgraph.signs.animals.dog_on_leash;html=1;pointerEvents=1;fillColor=#000000;strokeColor=none;verticalLabelPosition=bottom;verticalAlign=top;align=center;sketch=0;strokeWidth=1;" vertex="1" parent="1">
          <mxGeometry x="1940" y="718.5" width="50" height="40" as="geometry" />
        </mxCell>
        <mxCell id="BqUVc0J6VslhK_62mCGV-47" value="" style="ellipse;whiteSpace=wrap;html=1;aspect=fixed;strokeWidth=3;dashed=1;fillStyle=auto;opacity=40;perimeterSpacing=0;gradientColor=none;fillColor=none;" vertex="1" parent="1">
          <mxGeometry x="1740" y="640" width="90" height="90" as="geometry" />
        </mxCell>
        <mxCell id="BqUVc0J6VslhK_62mCGV-48" value="" style="ellipse;whiteSpace=wrap;html=1;aspect=fixed;strokeWidth=3;dashed=1;fillStyle=auto;opacity=40;perimeterSpacing=0;gradientColor=none;fillColor=none;" vertex="1" parent="1">
          <mxGeometry x="1805" y="590" width="140" height="140" as="geometry" />
        </mxCell>
        <mxCell id="BqUVc0J6VslhK_62mCGV-49" value="" style="ellipse;whiteSpace=wrap;html=1;aspect=fixed;strokeWidth=3;dashed=1;fillStyle=auto;opacity=40;perimeterSpacing=0;gradientColor=none;fillColor=none;" vertex="1" parent="1">
          <mxGeometry x="1920" y="693.5" width="90" height="90" as="geometry" />
        </mxCell>
        <mxCell id="BqUVc0J6VslhK_62mCGV-50" value="" style="verticalAlign=top;verticalLabelPosition=bottom;labelPosition=center;align=center;html=1;outlineConnect=0;fillColor=#ffcccc;strokeColor=#36393d;gradientDirection=north;strokeWidth=2;shape=mxgraph.networks.user_male;dashed=1;" vertex="1" parent="1">
          <mxGeometry x="1840" y="690" width="20" height="50" as="geometry" />
        </mxCell>
        <mxCell id="BqUVc0J6VslhK_62mCGV-51" value="" style="shape=flexArrow;endArrow=classic;html=1;width=15;endSize=7.12;" edge="1" parent="1">
          <mxGeometry width="50" height="50" relative="1" as="geometry">
            <mxPoint x="1570" y="760" as="sourcePoint" />
            <mxPoint x="1650" y="760" as="targetPoint" />
          </mxGeometry>
        </mxCell>
      </root>
    </mxGraphModel>
  </diagram>
</mxfile>
